<svg width="300" height="400" viewBox="0 0 200 144" fill="none" xmlns="http://www.w3.org/2000/svg">
<g clip-path="url(#clip0_1079_4040)">
<mask id="mask0_1079_4040" style="mask-type:luminance" maskUnits="userSpaceOnUse" x="0" y="0" width="200" height="144">
<path d="M200 0H0V143.919H200V0Z" fill="white"/>
</mask>
<g mask="url(#mask0_1079_4040)">
<path d="M200 0H0V143.919H200V0Z" fill="white"/>
<path d="M73.9242 45.4168C73.1102 45.4168 72.4245 45.0697 71.8672 44.3756C71.3099 43.6814 71.0312 42.8306 71.0312 41.8229C71.0312 40.5914 71.365 39.5539 72.0323 38.7105C72.707 37.867 73.532 37.4453 74.5073 37.4453C74.8886 37.4453 75.2406 37.4863 75.5633 37.5685C75.8933 37.6431 76.1279 37.7214 76.2672 37.8036L76.4653 37.9267L75.7172 39.483C75.5485 39.3337 75.3103 39.1956 75.0023 39.0687C74.6943 38.9344 74.4156 38.8672 74.1663 38.8672C73.6603 38.8672 73.2533 39.0799 72.9453 39.5054C72.6446 39.9308 72.4943 40.5392 72.4943 41.3303C72.4943 42.114 72.6519 42.7596 72.9672 43.2672C73.2825 43.7672 73.7116 44.0173 74.2543 44.0173C74.6063 44.0173 74.9252 43.9054 75.2112 43.6814C75.4972 43.4575 75.699 43.159 75.8163 42.7858L76.7293 43.3232C76.4873 43.98 76.1169 44.495 75.6182 44.8682C75.1195 45.2339 74.5549 45.4168 73.9242 45.4168ZM77.6398 45.2937L77.7719 42.573L77.6398 37.5685H81.7649L81.6439 38.7664H79.1689L79.1029 40.7481H81.3029L81.1819 41.9349H79.0589L79.0479 42.3827L79.1249 44.1069H81.7869L81.6659 45.2937H77.6398ZM85.0229 42.3155H84.396V42.3827L84.528 45.2937H83.0539L83.1859 42.573L83.0539 37.5685H85.4409C86.1449 37.5685 86.706 37.7626 87.124 38.1507C87.542 38.5387 87.751 39.0538 87.751 39.6957C87.751 40.1809 87.6263 40.625 87.377 41.028C87.135 41.4236 86.805 41.7371 86.387 41.9685L88.301 44.7227L86.97 45.4168L85.2539 42.3043C85.2025 42.3118 85.1255 42.3155 85.0229 42.3155ZM85.045 38.6993H84.506L84.4289 41.2295H85.177C85.5436 41.2295 85.826 41.1064 86.024 40.8601C86.2293 40.6138 86.332 40.2629 86.332 39.8077C86.332 39.0687 85.903 38.6993 85.045 38.6993ZM88.544 38.856L88.6651 37.5685H93.8901L93.769 38.856L91.8551 38.6881L91.8111 42.3827L91.9431 45.2937H90.4031L90.5351 42.573L90.4911 38.6993L88.544 38.856ZM96.3357 37.5125L96.1817 42.3827L96.3137 45.2937H94.7737L94.9057 42.573L94.7737 37.7924L96.3357 37.5125ZM101.954 38.7664H99.611L99.545 40.8265H101.646L101.525 42.0132H99.512L99.501 42.3827L99.633 45.2937H98.093L98.225 42.573L98.093 37.5685H102.075L101.954 38.7664ZM104.521 37.5125L104.367 42.3827L104.499 45.2937H102.959L103.091 42.573L102.959 37.7924L104.521 37.5125ZM108.621 45.4168C107.807 45.4168 107.122 45.0697 106.564 44.3756C106.007 43.6814 105.728 42.8306 105.728 41.8229C105.728 40.5914 106.062 39.5539 106.729 38.7105C107.404 37.867 108.229 37.4453 109.204 37.4453C109.586 37.4453 109.938 37.4863 110.26 37.5685C110.59 37.6431 110.825 37.7214 110.964 37.8036L111.162 37.9267L110.414 39.483C110.246 39.3337 110.007 39.1956 109.699 39.0687C109.391 38.9344 109.113 38.8672 108.863 38.8672C108.357 38.8672 107.95 39.0799 107.642 39.5054C107.342 39.9308 107.191 40.5392 107.191 41.3303C107.191 42.114 107.349 42.7596 107.664 43.2672C107.98 43.7672 108.409 44.0173 108.951 44.0173C109.303 44.0173 109.622 43.9054 109.908 43.6814C110.194 43.4575 110.396 43.159 110.513 42.7858L111.426 43.3232C111.184 43.98 110.814 44.495 110.315 44.8682C109.817 45.2339 109.252 45.4168 108.621 45.4168ZM116.781 45.3496L116.242 43.1664H113.613L113.03 45.2937L111.622 45.1817L112.59 42.4611L114.064 37.6468L116.033 37.5013L117.452 42.2931L118.365 45.1033L116.781 45.3496ZM115.043 38.9568H114.9L113.954 41.9797H115.912L115.043 38.9568ZM118.525 38.856L118.646 37.5685H123.871L123.75 38.856L121.836 38.6881L121.792 42.3827L121.924 45.2937H120.384L120.516 42.573L120.472 38.6993L118.525 38.856ZM124.755 45.2937L124.887 42.573L124.755 37.5685H128.88L128.759 38.7664H126.284L126.218 40.7481H128.418L128.297 41.9349H126.174L126.163 42.3827L126.24 44.1069H128.902L128.781 45.2937H124.755Z" fill="#504B8E"/>
<path d="M85.1231 54.5008C84.7195 54.5008 84.3959 54.3676 84.1524 54.1013C83.9102 53.8349 83.7891 53.4883 83.7891 53.0616C83.7891 52.603 83.9128 52.2372 84.1602 51.9643C84.4076 51.6913 84.7436 51.5547 85.1681 51.5547C85.5613 51.5547 85.8777 51.6873 86.1173 51.9523C86.3582 52.2174 86.4786 52.564 86.4786 52.992C86.4786 53.4572 86.3555 53.8249 86.1095 54.0952C85.8634 54.3657 85.5346 54.5008 85.1231 54.5008ZM85.1446 51.9702C84.8881 51.9702 84.6791 52.0676 84.5177 52.2625C84.3575 52.4573 84.2774 52.7137 84.2774 53.0317C84.2774 53.3485 84.3555 53.6036 84.5118 53.7971C84.6681 53.9906 84.8725 54.0873 85.1251 54.0873C85.3933 54.0873 85.6049 53.9952 85.7598 53.811C85.9148 53.6268 85.9923 53.369 85.9923 53.0377C85.9923 52.6971 85.9167 52.4341 85.7657 52.2485C85.616 52.063 85.4089 51.9702 85.1446 51.9702ZM88.504 52.004H87.4571V52.8607H88.422V53.2603H87.4571V54.4531H86.9923V51.6024H88.504V52.004ZM92.2696 54.4531H91.7266L91.2794 53.6898C91.239 53.6195 91.1993 53.5599 91.1602 53.5108C91.1225 53.4604 91.0834 53.4194 91.0431 53.3876C91.004 53.3558 90.961 53.3326 90.9141 53.318C90.8673 53.3034 90.8145 53.2962 90.7559 53.2962H90.5684V54.4531H90.1055V51.6024H91.0274C91.1589 51.6024 91.28 51.6183 91.3907 51.6502C91.5014 51.6819 91.5977 51.7304 91.6798 51.7953C91.7618 51.8589 91.8256 51.939 91.8712 52.0358C91.9181 52.1313 91.9415 52.2432 91.9415 52.3718C91.9415 52.4724 91.9265 52.5653 91.8966 52.6501C91.8679 52.7335 91.8263 52.8084 91.7716 52.8747C91.7182 52.9396 91.6531 52.9953 91.5763 53.0417C91.5007 53.0881 91.4154 53.1238 91.3204 53.1491V53.157C91.3712 53.1861 91.4154 53.2186 91.4532 53.2544C91.491 53.2888 91.5268 53.3247 91.5606 53.3617C91.5945 53.3989 91.6277 53.4413 91.6602 53.4889C91.6941 53.5353 91.7312 53.5897 91.7716 53.652L92.2696 54.4531ZM90.5684 51.9861V52.9124H90.9552C91.0268 52.9124 91.0925 52.9013 91.1524 52.8787C91.2136 52.8562 91.2664 52.8237 91.3106 52.7812C91.3549 52.7389 91.3894 52.6872 91.4141 52.6262C91.4389 52.5653 91.4513 52.497 91.4513 52.4215C91.4513 52.285 91.4089 52.1783 91.3243 52.1015C91.2397 52.0245 91.1179 51.9861 90.9591 51.9861H90.5684ZM94.17 54.4531H92.5977V51.6024H94.1075V52.004H93.0626V52.8111H94.0255V53.2107H93.0626V54.0535H94.17V54.4531ZM96.6212 54.3338C96.4102 54.4452 96.1479 54.5008 95.8341 54.5008C95.4278 54.5008 95.1023 54.3703 94.8575 54.1092C94.6127 53.8481 94.4903 53.5055 94.4903 53.0814C94.4903 52.6255 94.6277 52.2571 94.9024 51.9762C95.1785 51.6952 95.5268 51.5547 95.9473 51.5547C96.2182 51.5547 96.4428 51.5939 96.6212 51.672V52.1411C96.4324 52.0272 96.224 51.9702 95.9962 51.9702C95.6928 51.9702 95.4467 52.069 95.2579 52.2664C95.0704 52.4639 94.9766 52.7276 94.9766 53.0576C94.9766 53.3717 95.0645 53.6222 95.2403 53.809C95.4161 53.9946 95.6472 54.0873 95.9337 54.0873C96.198 54.0873 96.4272 54.0237 96.6212 53.8965V54.3338ZM98.2559 54.5008C97.8523 54.5008 97.5287 54.3676 97.2852 54.1013C97.0431 53.8349 96.922 53.4883 96.922 53.0616C96.922 52.603 97.0457 52.2372 97.2931 51.9643C97.5404 51.6913 97.8764 51.5547 98.3009 51.5547C98.6941 51.5547 99.0105 51.6873 99.2501 51.9523C99.491 52.2174 99.6114 52.564 99.6114 52.992C99.6114 53.4572 99.4884 53.8249 99.2423 54.0952C98.9962 54.3657 98.6674 54.5008 98.2559 54.5008ZM98.2774 51.9702C98.0209 51.9702 97.8119 52.0676 97.6505 52.2625C97.4903 52.4573 97.4102 52.7137 97.4102 53.0317C97.4102 53.3485 97.4884 53.6036 97.6446 53.7971C97.8009 53.9906 98.0053 54.0873 98.2579 54.0873C98.5261 54.0873 98.7377 53.9952 98.8927 53.811C99.0476 53.6268 99.1251 53.369 99.1251 53.0377C99.1251 52.6971 99.0496 52.4341 98.8985 52.2485C98.7488 52.063 98.5417 51.9702 98.2774 51.9702ZM102.31 54.2583C102.019 54.4199 101.694 54.5008 101.336 54.5008C100.922 54.5008 100.586 54.3696 100.33 54.1073C100.073 53.8448 99.9454 53.4976 99.9454 53.0655C99.9454 52.6242 100.085 52.2625 100.365 51.9801C100.646 51.6966 101.003 51.5547 101.435 51.5547C101.747 51.5547 102.008 51.6011 102.22 51.6939V52.1809C102.006 52.0351 101.75 51.9622 101.453 51.9622C101.155 51.9622 100.91 52.0623 100.719 52.2625C100.528 52.4626 100.433 52.7216 100.433 53.0397C100.433 53.367 100.515 53.6248 100.679 53.813C100.844 53.9999 101.066 54.0933 101.347 54.0933C101.54 54.0933 101.707 54.0556 101.847 53.98V53.3021H101.258V52.9045H102.31V54.2583ZM105.289 54.4531H104.781L103.443 52.3578C103.409 52.3048 103.381 52.2499 103.359 52.1929H103.347C103.358 52.2538 103.363 52.3843 103.363 52.5845V54.4531H102.914V51.6024H103.455L104.748 53.648C104.803 53.7328 104.838 53.7911 104.853 53.823H104.861C104.848 53.7474 104.842 53.6195 104.842 53.4393V51.6024H105.289V54.4531ZM106.461 54.4531H105.982V51.6024H106.461V54.4531ZM108.949 52.004H108.144V54.4531H107.679V52.004H106.877V51.6024H108.949V52.004ZM109.836 54.4531H109.357V51.6024H109.836V54.4531ZM111.681 54.5008C111.278 54.5008 110.954 54.3676 110.711 54.1013C110.469 53.8349 110.347 53.4883 110.347 53.0616C110.347 52.603 110.471 52.2372 110.719 51.9643C110.966 51.6913 111.302 51.5547 111.726 51.5547C112.12 51.5547 112.436 51.6873 112.676 51.9523C112.916 52.2174 113.037 52.564 113.037 52.992C113.037 53.4572 112.914 53.8249 112.668 54.0952C112.422 54.3657 112.093 54.5008 111.681 54.5008ZM111.703 51.9702C111.446 51.9702 111.237 52.0676 111.076 52.2625C110.916 52.4573 110.836 52.7137 110.836 53.0317C110.836 53.3485 110.914 53.6036 111.07 53.7971C111.226 53.9906 111.431 54.0873 111.683 54.0873C111.952 54.0873 112.163 53.9952 112.318 53.811C112.473 53.6268 112.551 53.369 112.551 53.0377C112.551 52.6971 112.475 52.4341 112.324 52.2485C112.174 52.063 111.967 51.9702 111.703 51.9702ZM115.926 54.4531H115.418L114.08 52.3578C114.046 52.3048 114.018 52.2499 113.996 52.1929H113.984C113.995 52.2538 114 52.3843 114 52.5845V54.4531H113.551V51.6024H114.092L115.385 53.648C115.439 53.7328 115.474 53.7911 115.49 53.823H115.498C115.485 53.7474 115.478 53.6195 115.478 53.4393V51.6024H115.926V54.4531Z" fill="black"/>
<path d="M65.3857 67.6835H63.0273V63.4075H65.2919V64.0098H63.7245V65.2205H65.1689V65.8198H63.7245V67.0841H65.3857V67.6835ZM70.6444 67.6835H69.953V64.9163C69.953 64.6897 69.9667 64.4124 69.9941 64.0844H69.9823C69.9394 64.2713 69.9013 64.4055 69.8681 64.487L68.6142 67.6835H68.1337L66.8769 64.5108C66.8417 64.4174 66.8046 64.2753 66.7655 64.0844H66.7538C66.7694 64.2553 66.7773 64.5346 66.7773 64.9223V67.6835H66.1327V63.4075H67.1142L68.2187 66.2552C68.3026 66.4739 68.3573 66.6369 68.3827 66.7442H68.3974C68.4696 66.5196 68.5282 66.3526 68.5732 66.2433L69.6982 63.4075H70.6444V67.6835ZM72.3759 66.133V67.6835H71.6815V63.4075H72.956C73.4384 63.4075 73.8124 63.5218 74.078 63.7504C74.3437 63.9791 74.4765 64.3011 74.4765 64.7166C74.4765 65.1321 74.3378 65.4719 74.0605 65.7363C73.7831 66.0008 73.4081 66.133 72.9355 66.133H72.3759ZM72.3759 63.9919V65.5545H72.8271C73.1259 65.5545 73.3534 65.4839 73.5097 65.3428C73.6659 65.2016 73.7441 65.0028 73.7441 64.7464C73.7441 64.2434 73.4569 63.9919 72.8827 63.9919H72.3759ZM77.5175 67.6835H75.1913V63.4075H75.8886V67.0841H77.5175V67.6835ZM79.6767 67.7551C79.0712 67.7551 78.5858 67.5553 78.2206 67.1557C77.8573 66.7562 77.6757 66.2363 77.6757 65.5962C77.6757 64.9084 77.8612 64.3598 78.2323 63.9502C78.6034 63.5407 79.1073 63.3359 79.7441 63.3359C80.3339 63.3359 80.8085 63.5347 81.1679 63.9324C81.5292 64.3299 81.7099 64.8497 81.7099 65.4919C81.7099 66.1896 81.5253 66.7412 81.1562 67.1468C80.787 67.5523 80.2939 67.7551 79.6767 67.7551ZM79.7089 63.9591C79.3241 63.9591 79.0107 64.1053 78.7685 64.3975C78.5282 64.6897 78.4081 65.0744 78.4081 65.5515C78.4081 66.0266 78.5253 66.4092 78.7597 66.6995C78.9941 66.9898 79.3007 67.1348 79.6796 67.1348C80.0819 67.1348 80.3993 66.9967 80.6317 66.7204C80.8642 66.444 80.9804 66.0574 80.9804 65.5605C80.9804 65.0495 80.8671 64.6549 80.6405 64.3767C80.4159 64.0983 80.1054 63.9591 79.7089 63.9591ZM85.3134 63.4075L83.9364 66.1299V67.6835H83.2392V66.1449L81.8974 63.4075H82.6913L83.5175 65.2414C83.5273 65.2633 83.5565 65.3457 83.6054 65.4889H83.6142C83.6317 65.4252 83.664 65.3428 83.7108 65.2414L84.5751 63.4075H85.3134ZM88.2079 67.6835H85.8495V63.4075H88.1142V64.0098H86.5468V65.2205H87.9911V65.8198H86.5468V67.0841H88.2079V67.6835ZM91.3134 67.6835H88.955V63.4075H91.2196V64.0098H89.6523V65.2205H91.0966V65.8198H89.6523V67.0841H91.3134V67.6835ZM95.4442 67.7551C94.8388 67.7551 94.3534 67.5553 93.9882 67.1557C93.6249 66.7562 93.4433 66.2363 93.4433 65.5962C93.4433 64.9084 93.6288 64.3598 93.9999 63.9502C94.371 63.5407 94.8749 63.3359 95.5116 63.3359C96.1015 63.3359 96.5761 63.5347 96.9355 63.9324C97.2968 64.3299 97.4774 64.8497 97.4774 65.4919C97.4774 66.1896 97.2929 66.7412 96.9237 67.1468C96.5546 67.5523 96.0614 67.7551 95.4442 67.7551ZM95.4765 63.9591C95.0917 63.9591 94.7782 64.1053 94.536 64.3975C94.2958 64.6897 94.1757 65.0744 94.1757 65.5515C94.1757 66.0266 94.2929 66.4092 94.5273 66.6995C94.7616 66.9898 95.0683 67.1348 95.4472 67.1348C95.8495 67.1348 96.1669 66.9967 96.3993 66.7204C96.6317 66.444 96.748 66.0574 96.748 65.5605C96.748 65.0495 96.6347 64.6549 96.4081 64.3767C96.1835 64.0983 95.873 63.9591 95.4765 63.9591ZM100.515 64.0098H98.9452V65.295H100.392V65.8944H98.9452V67.6835H98.248V63.4075H100.515V64.0098ZM105.613 64.0098H104.406V67.6835H103.709V64.0098H102.504V63.4075H105.613V64.0098ZM109.603 67.6835H108.903V65.8288H106.925V67.6835H106.228V63.4075H106.925V65.2056H108.903V63.4075H109.603V67.6835ZM112.999 67.6835H110.64V63.4075H112.905V64.0098H111.338V65.2205H112.782V65.8198H111.338V67.0841H112.999V67.6835ZM119.91 67.6835H119.218V64.9163C119.218 64.6897 119.232 64.4124 119.259 64.0844H119.248C119.205 64.2713 119.167 64.4055 119.133 64.487L117.879 67.6835H117.399L116.142 64.5108C116.107 64.4174 116.07 64.2753 116.031 64.0844H116.019C116.035 64.2553 116.043 64.5346 116.043 64.9223V67.6835H115.398V63.4075H116.379L117.484 66.2552C117.568 66.4739 117.623 66.6369 117.648 66.7442H117.663C117.735 66.5196 117.794 66.3526 117.838 66.2433L118.963 63.4075H119.91V67.6835ZM122.678 67.7551C122.073 67.7551 121.588 67.5553 121.222 67.1557C120.859 66.7562 120.677 66.2363 120.677 65.5962C120.677 64.9084 120.863 64.3598 121.234 63.9502C121.605 63.5407 122.109 63.3359 122.746 63.3359C123.336 63.3359 123.81 63.5347 124.17 63.9324C124.531 64.3299 124.712 64.8497 124.712 65.4919C124.712 66.1896 124.527 66.7412 124.158 67.1468C123.789 67.5523 123.296 67.7551 122.678 67.7551ZM122.711 63.9591C122.326 63.9591 122.012 64.1053 121.77 64.3975C121.53 64.6897 121.41 65.0744 121.41 65.5515C121.41 66.0266 121.527 66.4092 121.761 66.6995C121.996 66.9898 122.302 67.1348 122.681 67.1348C123.084 67.1348 123.401 66.9967 123.633 66.7204C123.866 66.444 123.982 66.0574 123.982 65.5605C123.982 65.0495 123.869 64.6549 123.642 64.3767C123.418 64.0983 123.107 63.9591 122.711 63.9591ZM129.045 67.6835H128.283L126.276 64.5406C126.225 64.4611 126.183 64.3786 126.15 64.2931H126.132C126.148 64.3846 126.156 64.5804 126.156 64.8806V67.6835H125.482V63.4075H126.294L128.233 66.4759C128.315 66.6031 128.368 66.6905 128.391 66.7383H128.403C128.383 66.625 128.374 66.4331 128.374 66.1628V63.4075H129.045V67.6835ZM132.783 64.0098H131.576V67.6835H130.879V64.0098H129.674V63.4075H132.783V64.0098ZM136.773 67.6835H136.073V65.8288H134.095V67.6835H133.398V63.4075H134.095V65.2056H136.073V63.4075H136.773V67.6835Z" fill="black"/>
<path d="M82 78.8913H81.9922V80.1218H81.6719V77.1499H81.9922V77.5078H82C82.1576 77.2373 82.388 77.1022 82.6914 77.1022C82.9492 77.1022 83.1504 77.1937 83.295 77.3766C83.4395 77.558 83.5117 77.8019 83.5117 78.1081C83.5117 78.4486 83.4304 78.7217 83.2676 78.9271C83.1048 79.1312 82.8822 79.2332 82.5996 79.2332C82.3405 79.2332 82.1407 79.1193 82 78.8913ZM81.9922 78.0703V78.3546C81.9922 78.5229 82.0456 78.666 82.1524 78.784C82.2604 78.9006 82.3972 78.9588 82.5625 78.9588C82.7565 78.9588 82.9082 78.8833 83.0176 78.7323C83.1283 78.5811 83.1836 78.3712 83.1836 78.1021C83.1836 77.8755 83.1322 77.6979 83.0293 77.5693C82.9265 77.4408 82.7871 77.3766 82.6114 77.3766C82.4252 77.3766 82.2754 77.4428 82.1621 77.5753C82.0489 77.7065 81.9922 77.8715 81.9922 78.0703ZM85.0664 77.4799C85.0104 77.4361 84.9297 77.4143 84.8242 77.4143C84.6875 77.4143 84.5729 77.4799 84.4805 77.6111C84.3894 77.7423 84.3438 77.9212 84.3438 78.1479V79.1855H84.0235V77.1499H84.3438V77.5693H84.3516C84.3972 77.4262 84.4668 77.3149 84.5606 77.2354C84.6543 77.1546 84.7591 77.1141 84.875 77.1141C84.9584 77.1141 85.0222 77.1234 85.0664 77.142V77.4799ZM86.25 79.2332C85.9545 79.2332 85.7181 79.1385 85.541 78.949C85.3653 78.7581 85.2774 78.5056 85.2774 78.1915C85.2774 77.8496 85.3692 77.5826 85.5528 77.3904C85.7364 77.1982 85.9844 77.1022 86.2969 77.1022C86.5951 77.1022 86.8275 77.1956 86.9942 77.3825C87.1621 77.5693 87.2461 77.8285 87.2461 78.1598C87.2461 78.4844 87.1556 78.7449 86.9746 78.941C86.795 79.1358 86.5534 79.2332 86.25 79.2332ZM86.2735 77.3766C86.0677 77.3766 85.905 77.4481 85.7852 77.5912C85.6654 77.733 85.6055 77.9291 85.6055 78.1796C85.6055 78.4208 85.666 78.611 85.7871 78.7502C85.9082 78.8893 86.0703 78.9588 86.2735 78.9588C86.4805 78.9588 86.6394 78.8907 86.75 78.7542C86.862 78.6177 86.918 78.4235 86.918 78.1717C86.918 77.9172 86.862 77.7211 86.75 77.5833C86.6394 77.4455 86.4805 77.3766 86.2735 77.3766ZM89.375 79.1855H89.0547V78.8635H89.0469C88.9141 79.11 88.7084 79.2332 88.4297 79.2332C87.9532 79.2332 87.7149 78.9443 87.7149 78.3665V77.1499H88.0332V78.3148C88.0332 78.7442 88.1947 78.9588 88.5176 78.9588C88.6739 78.9588 88.8021 78.9006 88.9024 78.784C89.0039 78.666 89.0547 78.5122 89.0547 78.3227V77.1499H89.375V79.1855ZM91.7305 79.1855H91.4102V78.8397H91.4024C91.2539 79.1021 91.0248 79.2332 90.7149 79.2332C90.4636 79.2332 90.2624 79.1425 90.1114 78.9609C89.9616 78.778 89.8867 78.5295 89.8867 78.2154C89.8867 77.8787 89.9701 77.6091 90.1367 77.4064C90.3034 77.2035 90.5254 77.1022 90.8028 77.1022C91.0775 77.1022 91.2774 77.2122 91.4024 77.4321H91.4102V76.1719H91.7305V79.1855ZM91.4102 78.2651V77.965C91.4102 77.8006 91.3568 77.6614 91.25 77.5474C91.1433 77.4335 91.0078 77.3766 90.8438 77.3766C90.6485 77.3766 90.4948 77.4494 90.3828 77.5952C90.2709 77.7409 90.2149 77.9424 90.2149 78.1995C90.2149 78.4341 90.2683 78.6196 90.375 78.7561C90.4831 78.8913 90.6276 78.9588 90.8086 78.9588C90.987 78.9588 91.1315 78.8933 91.2422 78.7621C91.3542 78.6309 91.4102 78.4652 91.4102 78.2651ZM92.6992 79.1855H92.3789V76.1719H92.6992V79.1855ZM94.9395 77.1499L94.0196 79.5115C93.8555 79.933 93.625 80.1437 93.3282 80.1437C93.2448 80.1437 93.1752 80.135 93.1192 80.1178V79.8256C93.1882 79.8494 93.2513 79.8614 93.3086 79.8614C93.4701 79.8614 93.5912 79.7633 93.6719 79.5672L93.8321 79.1815L93.0508 77.1499H93.4063L93.9473 78.7164C93.9538 78.7363 93.9675 78.788 93.9883 78.8714H94C94.0065 78.8397 94.0196 78.7893 94.0391 78.7204L94.6074 77.1499H94.9395ZM96.711 78.8913H96.7032V80.1218H96.3828V77.1499H96.7032V77.5078H96.711C96.8685 77.2373 97.099 77.1022 97.4024 77.1022C97.6602 77.1022 97.8614 77.1937 98.0059 77.3766C98.1504 77.558 98.2227 77.8019 98.2227 78.1081C98.2227 78.4486 98.1413 78.7217 97.9785 78.9271C97.8158 79.1312 97.5931 79.2332 97.3106 79.2332C97.0515 79.2332 96.8516 79.1193 96.711 78.8913ZM96.7032 78.0703V78.3546C96.7032 78.5229 96.7565 78.666 96.8633 78.784C96.9714 78.9006 97.1081 78.9588 97.2735 78.9588C97.4675 78.9588 97.6192 78.8833 97.7285 78.7323C97.8392 78.5811 97.8946 78.3712 97.8946 78.1021C97.8946 77.8755 97.8431 77.6979 97.7403 77.5693C97.6374 77.4408 97.4981 77.3766 97.3223 77.3766C97.1361 77.3766 96.9864 77.4428 96.8731 77.5753C96.7598 77.7065 96.7032 77.8715 96.7032 78.0703ZM99.7774 77.4799C99.7214 77.4361 99.6407 77.4143 99.5352 77.4143C99.3985 77.4143 99.2839 77.4799 99.1914 77.6111C99.1003 77.7423 99.0547 77.9212 99.0547 78.1479V79.1855H98.7344V77.1499H99.0547V77.5693H99.0625C99.1081 77.4262 99.1778 77.3149 99.2715 77.2354C99.3653 77.1546 99.4701 77.1141 99.586 77.1141C99.6693 77.1141 99.7331 77.1234 99.7774 77.142V77.4799ZM101.732 78.2492H100.32C100.325 78.4758 100.385 78.6508 100.5 78.774C100.614 78.8973 100.772 78.9588 100.972 78.9588C101.198 78.9588 101.405 78.8833 101.594 78.7323V79.0384C101.418 79.1683 101.185 79.2332 100.896 79.2332C100.614 79.2332 100.392 79.1411 100.23 78.9569C100.069 78.7714 99.9883 78.5109 99.9883 78.1756C99.9883 77.8589 100.076 77.6012 100.252 77.4023C100.429 77.2022 100.648 77.1022 100.91 77.1022C101.172 77.1022 101.374 77.1884 101.517 77.3606C101.661 77.5329 101.732 77.7721 101.732 78.0782V78.2492ZM101.404 77.9729C101.403 77.7847 101.358 77.6382 101.269 77.5336C101.182 77.4289 101.06 77.3766 100.904 77.3766C100.753 77.3766 100.625 77.4315 100.519 77.5415C100.414 77.6515 100.349 77.7953 100.324 77.9729H101.404ZM102.097 79.1119V78.7621C102.272 78.8933 102.464 78.9588 102.674 78.9588C102.955 78.9588 103.096 78.8635 103.096 78.6726C103.096 78.6183 103.083 78.5726 103.058 78.5354C103.035 78.4971 103.002 78.4633 102.961 78.4341C102.92 78.405 102.872 78.3791 102.816 78.3565C102.762 78.3327 102.702 78.3082 102.639 78.283C102.55 78.2472 102.472 78.2115 102.404 78.1756C102.338 78.1386 102.282 78.0975 102.236 78.0524C102.192 78.006 102.158 77.9537 102.135 77.8953C102.112 77.837 102.101 77.7688 102.101 77.6906C102.101 77.5952 102.123 77.511 102.166 77.4381C102.209 77.3639 102.266 77.3023 102.338 77.2533C102.409 77.2029 102.491 77.1652 102.582 77.1399C102.674 77.1148 102.769 77.1022 102.867 77.1022C103.04 77.1022 103.195 77.1327 103.332 77.1937V77.5236C103.185 77.4255 103.015 77.3766 102.824 77.3766C102.764 77.3766 102.71 77.3838 102.662 77.3983C102.614 77.4117 102.572 77.4308 102.537 77.456C102.503 77.4812 102.476 77.5117 102.457 77.5474C102.439 77.582 102.43 77.6203 102.43 77.6628C102.43 77.7158 102.439 77.7602 102.457 77.796C102.476 77.8317 102.504 77.8636 102.541 77.8914C102.577 77.9193 102.622 77.9444 102.674 77.9669C102.726 77.9895 102.785 78.014 102.851 78.0405C102.94 78.075 103.019 78.1107 103.09 78.1479C103.16 78.1836 103.22 78.2247 103.269 78.2711C103.319 78.3161 103.357 78.3685 103.383 78.4282C103.41 78.4878 103.424 78.5586 103.424 78.6408C103.424 78.7415 103.402 78.829 103.357 78.9033C103.314 78.9775 103.256 79.0391 103.183 79.0881C103.111 79.1372 103.027 79.1736 102.931 79.1974C102.836 79.2213 102.737 79.2332 102.633 79.2332C102.427 79.2332 102.249 79.1928 102.097 79.1119ZM105.525 78.2492H104.113C104.118 78.4758 104.178 78.6508 104.293 78.774C104.407 78.8973 104.565 78.9588 104.765 78.9588C104.991 78.9588 105.198 78.8833 105.387 78.7323V79.0384C105.211 79.1683 104.978 79.2332 104.689 79.2332C104.407 79.2332 104.185 79.1411 104.023 78.9569C103.862 78.7714 103.781 78.5109 103.781 78.1756C103.781 77.8589 103.869 77.6012 104.045 77.4023C104.222 77.2022 104.441 77.1022 104.703 77.1022C104.965 77.1022 105.167 77.1884 105.31 77.3606C105.454 77.5329 105.525 77.7721 105.525 78.0782V78.2492ZM105.197 77.9729C105.196 77.7847 105.151 77.6382 105.062 77.5336C104.975 77.4289 104.853 77.3766 104.697 77.3766C104.546 77.3766 104.418 77.4315 104.312 77.5415C104.207 77.6515 104.142 77.7953 104.117 77.9729H105.197ZM107.672 79.1855H107.351V78.0246C107.351 77.5925 107.196 77.3766 106.887 77.3766C106.726 77.3766 106.594 77.4381 106.488 77.5614C106.384 77.6833 106.332 77.8377 106.332 78.0246V79.1855H106.012V77.1499H106.332V77.4878H106.34C106.491 77.2307 106.709 77.1022 106.996 77.1022C107.215 77.1022 107.382 77.1744 107.498 77.3188C107.614 77.4619 107.672 77.6694 107.672 77.941V79.1855ZM109.205 79.1657C109.129 79.208 109.03 79.2293 108.906 79.2293C108.556 79.2293 108.381 79.0305 108.381 78.6328V77.4282H108.037V77.1499H108.381V76.6529L108.701 76.5475V77.1499H109.205V77.4282H108.701V78.5752C108.701 78.7117 108.724 78.8091 108.769 78.8674C108.815 78.9258 108.89 78.9549 108.996 78.9549C109.077 78.9549 109.146 78.9324 109.205 78.8873V79.1657ZM111.24 78.2492H109.828C109.833 78.4758 109.893 78.6508 110.008 78.774C110.122 78.8973 110.28 78.9588 110.48 78.9588C110.706 78.9588 110.913 78.8833 111.101 78.7323V79.0384C110.926 79.1683 110.693 79.2332 110.404 79.2332C110.122 79.2332 109.9 79.1411 109.738 78.9569C109.577 78.7714 109.496 78.5109 109.496 78.1756C109.496 77.8589 109.584 77.6012 109.76 77.4023C109.937 77.2022 110.156 77.1022 110.418 77.1022C110.68 77.1022 110.882 77.1884 111.025 77.3606C111.168 77.5329 111.24 77.7721 111.24 78.0782V78.2492ZM110.912 77.9729C110.911 77.7847 110.866 77.6382 110.777 77.5336C110.69 77.4289 110.568 77.3766 110.412 77.3766C110.261 77.3766 110.133 77.4315 110.027 77.5415C109.922 77.6515 109.857 77.7953 109.832 77.9729H110.912ZM113.433 79.1855H113.113V78.8397H113.105C112.957 79.1021 112.728 79.2332 112.418 79.2332C112.166 79.2332 111.965 79.1425 111.814 78.9609C111.665 78.778 111.59 78.5295 111.59 78.2154C111.59 77.8787 111.673 77.6091 111.84 77.4064C112.006 77.2035 112.228 77.1022 112.506 77.1022C112.78 77.1022 112.98 77.2122 113.105 77.4321H113.113V76.1719H113.433V79.1855ZM113.113 78.2651V77.965C113.113 77.8006 113.06 77.6614 112.953 77.5474C112.846 77.4335 112.711 77.3766 112.547 77.3766C112.351 77.3766 112.198 77.4494 112.086 77.5952C111.974 77.7409 111.918 77.9424 111.918 78.1995C111.918 78.4341 111.971 78.6196 112.078 78.7561C112.186 78.8913 112.331 78.9588 112.512 78.9588C112.69 78.9588 112.834 78.8933 112.945 78.7621C113.057 78.6309 113.113 78.4652 113.113 78.2651ZM116.107 79.1657C116.032 79.208 115.932 79.2293 115.808 79.2293C115.458 79.2293 115.283 79.0305 115.283 78.6328V77.4282H114.939V77.1499H115.283V76.6529L115.603 76.5475V77.1499H116.107V77.4282H115.603V78.5752C115.603 78.7117 115.626 78.8091 115.672 78.8674C115.717 78.9258 115.793 78.9549 115.898 78.9549C115.979 78.9549 116.049 78.9324 116.107 78.8873V79.1657ZM117.371 79.2332C117.075 79.2332 116.839 79.1385 116.662 78.949C116.486 78.7581 116.398 78.5056 116.398 78.1915C116.398 77.8496 116.49 77.5826 116.674 77.3904C116.857 77.1982 117.105 77.1022 117.418 77.1022C117.716 77.1022 117.948 77.1956 118.115 77.3825C118.283 77.5693 118.367 77.8285 118.367 78.1598C118.367 78.4844 118.277 78.7449 118.096 78.941C117.916 79.1358 117.674 79.2332 117.371 79.2332ZM117.394 77.3766C117.189 77.3766 117.026 77.4481 116.906 77.5912C116.786 77.733 116.726 77.9291 116.726 78.1796C116.726 78.4208 116.787 78.611 116.908 78.7502C117.029 78.8893 117.191 78.9588 117.394 78.9588C117.601 78.9588 117.76 78.8907 117.871 78.7542C117.983 78.6177 118.039 78.4235 118.039 78.1717C118.039 77.9172 117.983 77.7211 117.871 77.5833C117.76 77.4455 117.601 77.3766 117.394 77.3766Z" fill="black"/>
<path d="M3.19922 139.848C3.7515 139.848 4.19922 139.392 4.19922 138.83C4.19922 138.268 3.7515 137.812 3.19922 137.812C2.64693 137.812 2.19922 138.268 2.19922 138.83C2.19922 139.392 2.64693 139.848 3.19922 139.848Z" fill="#E8E8E8"/>
<path d="M11.1992 139.848C11.7515 139.848 12.1992 139.392 12.1992 138.83C12.1992 138.268 11.7515 137.812 11.1992 137.812C10.6469 137.812 10.1992 138.268 10.1992 138.83C10.1992 139.392 10.6469 139.848 11.1992 139.848Z" fill="#E8E8E8"/>
<path d="M19.1992 139.848C19.7515 139.848 20.1992 139.392 20.1992 138.83C20.1992 138.268 19.7515 137.812 19.1992 137.812C18.6469 137.812 18.1992 138.268 18.1992 138.83C18.1992 139.392 18.6469 139.848 19.1992 139.848Z" fill="#E8E8E8"/>
<path d="M27.1992 139.848C27.7515 139.848 28.1992 139.392 28.1992 138.83C28.1992 138.268 27.7515 137.812 27.1992 137.812C26.6469 137.812 26.1992 138.268 26.1992 138.83C26.1992 139.392 26.6469 139.848 27.1992 139.848Z" fill="#E8E8E8"/>
<path d="M35.1992 139.848C35.7515 139.848 36.1992 139.392 36.1992 138.83C36.1992 138.268 35.7515 137.812 35.1992 137.812C34.6469 137.812 34.1992 138.268 34.1992 138.83C34.1992 139.392 34.6469 139.848 35.1992 139.848Z" fill="#E8E8E8"/>
<path d="M43.1992 139.848C43.7515 139.848 44.1992 139.392 44.1992 138.83C44.1992 138.268 43.7515 137.812 43.1992 137.812C42.6469 137.812 42.1992 138.268 42.1992 138.83C42.1992 139.392 42.6469 139.848 43.1992 139.848Z" fill="#E8E8E8"/>
<path d="M51.1992 139.848C51.7515 139.848 52.1992 139.392 52.1992 138.83C52.1992 138.268 51.7515 137.812 51.1992 137.812C50.6469 137.812 50.1992 138.268 50.1992 138.83C50.1992 139.392 50.6469 139.848 51.1992 139.848Z" fill="#E8E8E8"/>
<path d="M59.1992 139.848C59.7515 139.848 60.1992 139.392 60.1992 138.83C60.1992 138.268 59.7515 137.812 59.1992 137.812C58.6469 137.812 58.1992 138.268 58.1992 138.83C58.1992 139.392 58.6469 139.848 59.1992 139.848Z" fill="#E8E8E8"/>
<path d="M3.19922 132.825C3.7515 132.825 4.19922 132.369 4.19922 131.807C4.19922 131.245 3.7515 130.789 3.19922 130.789C2.64693 130.789 2.19922 131.245 2.19922 131.807C2.19922 132.369 2.64693 132.825 3.19922 132.825Z" fill="#E8E8E8"/>
<path d="M11.1992 132.825C11.7515 132.825 12.1992 132.369 12.1992 131.807C12.1992 131.245 11.7515 130.789 11.1992 130.789C10.6469 130.789 10.1992 131.245 10.1992 131.807C10.1992 132.369 10.6469 132.825 11.1992 132.825Z" fill="#E8E8E8"/>
<path d="M19.1992 132.825C19.7515 132.825 20.1992 132.369 20.1992 131.807C20.1992 131.245 19.7515 130.789 19.1992 130.789C18.6469 130.789 18.1992 131.245 18.1992 131.807C18.1992 132.369 18.6469 132.825 19.1992 132.825Z" fill="#E8E8E8"/>
<path d="M27.1992 132.825C27.7515 132.825 28.1992 132.369 28.1992 131.807C28.1992 131.245 27.7515 130.789 27.1992 130.789C26.6469 130.789 26.1992 131.245 26.1992 131.807C26.1992 132.369 26.6469 132.825 27.1992 132.825Z" fill="#E8E8E8"/>
<path d="M35.1992 132.825C35.7515 132.825 36.1992 132.369 36.1992 131.807C36.1992 131.245 35.7515 130.789 35.1992 130.789C34.6469 130.789 34.1992 131.245 34.1992 131.807C34.1992 132.369 34.6469 132.825 35.1992 132.825Z" fill="#E8E8E8"/>
<path d="M43.1992 132.825C43.7515 132.825 44.1992 132.369 44.1992 131.807C44.1992 131.245 43.7515 130.789 43.1992 130.789C42.6469 130.789 42.1992 131.245 42.1992 131.807C42.1992 132.369 42.6469 132.825 43.1992 132.825Z" fill="#E8E8E8"/>
<path d="M51.1992 132.825C51.7515 132.825 52.1992 132.369 52.1992 131.807C52.1992 131.245 51.7515 130.789 51.1992 130.789C50.6469 130.789 50.1992 131.245 50.1992 131.807C50.1992 132.369 50.6469 132.825 51.1992 132.825Z" fill="#E8E8E8"/>
<path d="M3.19922 125.801C3.7515 125.801 4.19922 125.346 4.19922 124.783C4.19922 124.221 3.7515 123.766 3.19922 123.766C2.64693 123.766 2.19922 124.221 2.19922 124.783C2.19922 125.346 2.64693 125.801 3.19922 125.801Z" fill="#E8E8E8"/>
<path d="M11.1992 125.801C11.7515 125.801 12.1992 125.346 12.1992 124.783C12.1992 124.221 11.7515 123.766 11.1992 123.766C10.6469 123.766 10.1992 124.221 10.1992 124.783C10.1992 125.346 10.6469 125.801 11.1992 125.801Z" fill="#E8E8E8"/>
<path d="M19.1992 125.801C19.7515 125.801 20.1992 125.346 20.1992 124.783C20.1992 124.221 19.7515 123.766 19.1992 123.766C18.6469 123.766 18.1992 124.221 18.1992 124.783C18.1992 125.346 18.6469 125.801 19.1992 125.801Z" fill="#E8E8E8"/>
<path d="M27.1992 125.801C27.7515 125.801 28.1992 125.346 28.1992 124.783C28.1992 124.221 27.7515 123.766 27.1992 123.766C26.6469 123.766 26.1992 124.221 26.1992 124.783C26.1992 125.346 26.6469 125.801 27.1992 125.801Z" fill="#E8E8E8"/>
<path d="M35.1992 125.801C35.7515 125.801 36.1992 125.346 36.1992 124.783C36.1992 124.221 35.7515 123.766 35.1992 123.766C34.6469 123.766 34.1992 124.221 34.1992 124.783C34.1992 125.346 34.6469 125.801 35.1992 125.801Z" fill="#E8E8E8"/>
<path d="M43.1992 125.801C43.7515 125.801 44.1992 125.346 44.1992 124.783C44.1992 124.221 43.7515 123.766 43.1992 123.766C42.6469 123.766 42.1992 124.221 42.1992 124.783C42.1992 125.346 42.6469 125.801 43.1992 125.801Z" fill="#E8E8E8"/>
<path d="M3.19922 118.778C3.7515 118.778 4.19922 118.322 4.19922 117.76C4.19922 117.198 3.7515 116.742 3.19922 116.742C2.64693 116.742 2.19922 117.198 2.19922 117.76C2.19922 118.322 2.64693 118.778 3.19922 118.778Z" fill="#E8E8E8"/>
<path d="M11.1992 118.778C11.7515 118.778 12.1992 118.322 12.1992 117.76C12.1992 117.198 11.7515 116.742 11.1992 116.742C10.6469 116.742 10.1992 117.198 10.1992 117.76C10.1992 118.322 10.6469 118.778 11.1992 118.778Z" fill="#E8E8E8"/>
<path d="M19.1992 118.778C19.7515 118.778 20.1992 118.322 20.1992 117.76C20.1992 117.198 19.7515 116.742 19.1992 116.742C18.6469 116.742 18.1992 117.198 18.1992 117.76C18.1992 118.322 18.6469 118.778 19.1992 118.778Z" fill="#E8E8E8"/>
<path d="M27.1992 118.778C27.7515 118.778 28.1992 118.322 28.1992 117.76C28.1992 117.198 27.7515 116.742 27.1992 116.742C26.6469 116.742 26.1992 117.198 26.1992 117.76C26.1992 118.322 26.6469 118.778 27.1992 118.778Z" fill="#E8E8E8"/>
<path d="M35.1992 118.778C35.7515 118.778 36.1992 118.322 36.1992 117.76C36.1992 117.198 35.7515 116.742 35.1992 116.742C34.6469 116.742 34.1992 117.198 34.1992 117.76C34.1992 118.322 34.6469 118.778 35.1992 118.778Z" fill="#E8E8E8"/>
<path d="M3.19922 111.754C3.7515 111.754 4.19922 111.299 4.19922 110.737C4.19922 110.174 3.7515 109.719 3.19922 109.719C2.64693 109.719 2.19922 110.174 2.19922 110.737C2.19922 111.299 2.64693 111.754 3.19922 111.754Z" fill="#E8E8E8"/>
<path d="M11.1992 111.754C11.7515 111.754 12.1992 111.299 12.1992 110.737C12.1992 110.174 11.7515 109.719 11.1992 109.719C10.6469 109.719 10.1992 110.174 10.1992 110.737C10.1992 111.299 10.6469 111.754 11.1992 111.754Z" fill="#E8E8E8"/>
<path d="M19.1992 111.754C19.7515 111.754 20.1992 111.299 20.1992 110.737C20.1992 110.174 19.7515 109.719 19.1992 109.719C18.6469 109.719 18.1992 110.174 18.1992 110.737C18.1992 111.299 18.6469 111.754 19.1992 111.754Z" fill="#E8E8E8"/>
<path d="M27.1992 111.754C27.7515 111.754 28.1992 111.299 28.1992 110.737C28.1992 110.174 27.7515 109.719 27.1992 109.719C26.6469 109.719 26.1992 110.174 26.1992 110.737C26.1992 111.299 26.6469 111.754 27.1992 111.754Z" fill="#E8E8E8"/>
<path d="M3.19922 104.731C3.7515 104.731 4.19922 104.275 4.19922 103.713C4.19922 103.151 3.7515 102.695 3.19922 102.695C2.64693 102.695 2.19922 103.151 2.19922 103.713C2.19922 104.275 2.64693 104.731 3.19922 104.731Z" fill="#E8E8E8"/>
<path d="M11.1992 104.731C11.7515 104.731 12.1992 104.275 12.1992 103.713C12.1992 103.151 11.7515 102.695 11.1992 102.695C10.6469 102.695 10.1992 103.151 10.1992 103.713C10.1992 104.275 10.6469 104.731 11.1992 104.731Z" fill="#E8E8E8"/>
<path d="M19.1992 104.731C19.7515 104.731 20.1992 104.275 20.1992 103.713C20.1992 103.151 19.7515 102.695 19.1992 102.695C18.6469 102.695 18.1992 103.151 18.1992 103.713C18.1992 104.275 18.6469 104.731 19.1992 104.731Z" fill="#E8E8E8"/>
<path d="M3.19922 97.7114C3.7515 97.7114 4.19922 97.2557 4.19922 96.6936C4.19922 96.1315 3.7515 95.6758 3.19922 95.6758C2.64693 95.6758 2.19922 96.1315 2.19922 96.6936C2.19922 97.2557 2.64693 97.7114 3.19922 97.7114Z" fill="#E8E8E8"/>
<path d="M11.1992 97.7114C11.7515 97.7114 12.1992 97.2557 12.1992 96.6936C12.1992 96.1315 11.7515 95.6758 11.1992 95.6758C10.6469 95.6758 10.1992 96.1315 10.1992 96.6936C10.1992 97.2557 10.6469 97.7114 11.1992 97.7114Z" fill="#E8E8E8"/>
<path d="M3.19922 89.8716C3.7515 89.8716 4.19922 89.4159 4.19922 88.8537C4.19922 88.2916 3.7515 87.8359 3.19922 87.8359C2.64693 87.8359 2.19922 88.2916 2.19922 88.8537C2.19922 89.4159 2.64693 89.8716 3.19922 89.8716Z" fill="#E8E8E8"/>
<g filter="url(#filter0_d_1079_4040)">
<path d="M16.039 11.0576C16.039 10.5943 15.67 10.2188 15.2148 10.2188C14.7596 10.2188 14.3906 10.5943 14.3906 11.0576V12.2383C14.3906 12.7016 14.7596 13.0771 15.2148 13.0771C15.67 13.0771 16.039 12.7016 16.039 12.2383V11.0576Z" fill="#C09525"/>
<path d="M22.0222 10.3381C22.0222 10.7221 21.7163 11.0333 21.339 11.0333H9.15191C8.77461 11.0333 8.46875 10.7221 8.46875 10.3381V8.06251C8.46875 7.6785 8.77461 7.36719 9.15191 7.36719H10.1161V9.29349H20.3749V7.36719H21.339C21.7163 7.36719 22.0222 7.6785 22.0222 8.06252V10.3381Z" fill="#836600"/>
<path d="M22.0222 10.1076C22.0222 10.4916 21.7163 10.8029 21.339 10.8029H9.15191C8.77461 10.8029 8.46875 10.4916 8.46875 10.1076V7.83204C8.46875 7.44803 8.77461 7.13672 9.15191 7.13672H10.1161V9.06302H20.3749V7.13672H21.339C21.7163 7.13672 22.0222 7.44803 22.0222 7.83204V10.1076Z" fill="#F4CC3F"/>
<path d="M20.3738 9.10377H10.1172V0L15.2455 1.0057e-06L20.3738 9.12572e-07V9.10377Z" fill="#2874BA"/>
<path d="M17.2076 9.10377H13.2812V0L17.2076 3.49311e-07V9.10377Z" fill="#2D4071"/>
<path opacity="0.5" d="M20.3835 1.26982L10.0625 1.26981V0L20.3835 9.18372e-07V1.26982Z" fill="url(#paint0_linear_1079_4040)"/>
<path d="M10.1758 8.42578H20.3834V9.1184H10.1758V8.42578Z" fill="url(#paint1_linear_1079_4040)"/>
<path d="M14.8749 11.9626C15.074 11.7885 15.3682 11.7885 15.5673 11.9626L16.6492 12.9083C16.7772 13.0203 16.95 13.0636 17.1145 13.0251L18.5043 12.6994C18.76 12.6395 19.0205 12.7786 19.1173 13.0269L19.6435 14.376C19.7058 14.5357 19.8389 14.6558 20.0022 14.6995L21.3814 15.0684C21.6353 15.1364 21.8024 15.3827 21.7748 15.6485L21.6247 17.0918C21.6069 17.2627 21.67 17.4321 21.7946 17.548L22.8474 18.527C23.0411 18.7073 23.0766 19.0045 22.9308 19.2267L22.1389 20.4337C22.0451 20.5766 22.0237 20.7565 22.0811 20.918L22.5662 22.2829C22.6555 22.5342 22.5512 22.8141 22.3207 22.9418L21.0683 23.6361C20.9201 23.7183 20.819 23.8673 20.7961 24.0376L20.6024 25.4755C20.5668 25.7403 20.3466 25.9387 20.0842 25.9428L18.6583 25.9652C18.4894 25.9679 18.3319 26.052 18.2339 26.1919L17.4058 27.3737C17.2534 27.5911 16.9678 27.6627 16.7335 27.5423L15.4608 26.8876C15.3101 26.8101 15.1322 26.8101 14.9815 26.8876L13.7087 27.5423C13.4744 27.6627 13.1888 27.5911 13.0364 27.3737L12.2084 26.1919C12.1103 26.052 11.9528 25.9679 11.784 25.9652L10.3581 25.9428C10.0956 25.9387 9.87543 25.7403 9.83979 25.4755L9.64613 24.0376C9.6232 23.8673 9.52212 23.7183 9.37384 23.6361L8.12148 22.9418C7.89098 22.8141 7.78668 22.5342 7.87596 22.2829L8.36106 20.918C8.4185 20.7565 8.39706 20.5766 8.3033 20.4337L7.51136 19.2267C7.3656 19.0045 7.40106 18.7073 7.59481 18.527L8.64756 17.548C8.7722 17.4321 8.8353 17.2627 8.81753 17.0918L8.66744 15.6485C8.63982 15.3827 8.80691 15.1364 9.06075 15.0684L10.44 14.6995C10.6033 14.6558 10.7365 14.5357 10.7988 14.376L11.3249 13.0269C11.4218 12.7786 11.6822 12.6395 11.938 12.6994L13.3277 13.0251C13.4922 13.0636 13.665 13.0203 13.7931 12.9083L14.8749 11.9626Z" fill="url(#paint2_linear_1079_4040)"/>
<path d="M15.2136 25.5308C18.3325 25.5308 20.8609 22.9574 20.8609 19.783C20.8609 16.6085 18.3325 14.0352 15.2136 14.0352C12.0948 14.0352 9.56641 16.6085 9.56641 19.783C9.56641 22.9574 12.0948 25.5308 15.2136 25.5308Z" fill="#705100"/>
<mask id="mask1_1079_4040" style="mask-type:alpha" maskUnits="userSpaceOnUse" x="9" y="14" width="13" height="13">
<path d="M15.5158 26.1591C18.642 26.1591 21.1762 23.5797 21.1762 20.3979C21.1762 17.2161 18.642 14.6367 15.5158 14.6367C12.3897 14.6367 9.85547 17.2161 9.85547 20.3979C9.85547 23.5797 12.3897 26.1591 15.5158 26.1591Z" fill="#C28B37"/>
</mask>
<g mask="url(#mask1_1079_4040)">
<path d="M15.2151 25.5458C18.3412 25.5458 20.8754 22.9665 20.8754 19.7846C20.8754 16.6028 18.3412 14.0234 15.2151 14.0234C12.0889 14.0234 9.55469 16.6028 9.55469 19.7846C9.55469 22.9665 12.0889 25.5458 15.2151 25.5458Z" fill="#DBA007"/>
</g>
<path d="M15.3014 24.2315C17.6381 24.2315 19.5324 22.2707 19.5324 19.8521C19.5324 17.4334 17.6381 15.4727 15.3014 15.4727C12.9646 15.4727 11.0703 17.4334 11.0703 19.8521C11.0703 22.2707 12.9646 24.2315 15.3014 24.2315Z" fill="#A36D1D"/>
<path opacity="0.8" d="M15.3036 23.7946C17.4819 23.7946 19.2478 21.9972 19.2478 19.7801C19.2478 17.563 17.4819 15.7656 15.3036 15.7656C13.1253 15.7656 11.3594 17.563 11.3594 19.7801C11.3594 21.9972 13.1253 23.7946 15.3036 23.7946Z" fill="url(#paint3_linear_1079_4040)"/>
<path d="M15.3729 22.1885C16.6403 22.1885 17.6677 21.1101 17.6677 19.7798C17.6677 18.4495 16.6403 17.3711 15.3729 17.3711C14.1055 17.3711 13.0781 18.4495 13.0781 19.7798C13.0781 21.1101 14.1055 22.1885 15.3729 22.1885Z" fill="#B5760C"/>
<path opacity="0.8" d="M15.3751 21.749C16.4841 21.749 17.3831 20.8014 17.3831 19.6323C17.3831 18.4633 16.4841 17.5156 15.3751 17.5156C14.2662 17.5156 13.3672 18.4633 13.3672 19.6323C13.3672 20.8014 14.2662 21.749 15.3751 21.749Z" fill="url(#paint4_linear_1079_4040)"/>
</g>
<path d="M142.5 143.665H199.95V96.082C180.01 119.503 167.366 129.794 142.5 143.665Z" fill="#1FB5FA"/>
<path d="M142.5 143.715H199.95V101.68C180.817 121.913 167.912 133.611 142.5 143.715Z" fill="#0D47A1"/>
<path d="M160.21 8.04297L160.031 13.7101L160.184 17.0974H158.392L158.546 13.9316L158.52 13.2411H155.077L155.064 13.7101L155.218 17.0974H153.426L153.58 13.9316L153.426 8.36867L155.244 8.04297L155.116 11.8602H158.482L158.392 8.36867L160.21 8.04297ZM163.262 17.0974C162.758 17.0974 162.345 16.9367 162.02 16.6154C161.705 16.2853 161.547 15.8467 161.547 15.2996C161.547 14.7437 161.794 14.266 162.289 13.8665C162.784 13.4582 163.386 13.2542 164.094 13.2542H164.964V13.0327C164.964 12.6071 164.879 12.3161 164.708 12.1598C164.538 12.0035 164.218 11.9253 163.748 11.9253C163.552 11.9253 163.317 11.9688 163.044 12.0556C162.78 12.1338 162.481 12.2597 162.148 12.4334L161.777 11.4042C162.144 11.1436 162.588 10.9091 163.108 10.7007C163.637 10.4922 164.073 10.388 164.414 10.388C165.754 10.388 166.424 11.0481 166.424 12.3683V14.9217C166.424 15.4082 166.573 15.951 166.872 16.5502L165.515 17.1365C165.301 16.7196 165.144 16.3462 165.041 16.0161C164.572 16.737 163.979 17.0974 163.262 17.0974ZM163.8 15.7686C164.141 15.7686 164.529 15.5906 164.964 15.2344V14.3615C164.512 14.2573 164.145 14.2052 163.864 14.2052C163.326 14.2052 163.057 14.4484 163.057 14.9348C163.057 15.1867 163.125 15.3908 163.262 15.5471C163.398 15.6948 163.578 15.7686 163.8 15.7686ZM169.518 17.0974C169.057 17.0974 168.682 16.9455 168.392 16.6414C168.11 16.3288 167.969 15.9205 167.969 15.4168L168.046 13.9186L167.905 10.7919L169.62 10.4662L169.454 14.4267C169.454 14.8001 169.518 15.0737 169.646 15.2474C169.782 15.4212 169.996 15.508 170.286 15.508C170.576 15.508 170.977 15.3603 171.489 15.0651V14.2834L171.348 10.857L173.076 10.5313L172.923 13.7883L172.936 14.8566C172.936 15.4124 173.076 15.9726 173.358 16.5372L172.027 17.1365C171.745 16.5719 171.574 16.1203 171.515 15.7816C170.747 16.6588 170.081 17.0974 169.518 17.0974ZM174.289 15.8077L176.99 11.8862L174.161 12.0816L174.456 10.4401L176.645 10.5834L178.782 10.4271L178.565 11.782L175.851 15.7165L178.961 15.5341L178.68 17.1756L176.504 17.0323L174.072 17.1756L174.289 15.8077ZM183.919 8.04297L183.739 13.7101L183.893 17.0974H182.101L182.255 13.9316L182.101 8.36867L183.919 8.04297ZM189.394 13.8013C189.394 13.2021 189.343 12.8026 189.24 12.6028C189.138 12.403 188.899 12.3031 188.524 12.3031C188.148 12.3031 187.721 12.4551 187.244 12.7591V13.7101L187.384 16.7717L185.669 17.0974L185.823 13.9316C185.789 12.7678 185.695 11.7255 185.541 10.8049L187.09 10.4662C187.15 10.9699 187.192 11.4607 187.218 11.9383C187.346 11.7646 187.491 11.5952 187.653 11.4302C187.815 11.2565 188.071 11.0655 188.421 10.857C188.771 10.6399 189.138 10.5313 189.522 10.5313C189.914 10.5313 190.243 10.6877 190.508 11.0003C190.772 11.3043 190.904 11.7212 190.904 12.251L190.828 13.7101L190.968 16.8369L189.24 17.1626L189.394 13.8013ZM194.584 12.0816C194.208 12.0816 193.918 12.2206 193.713 12.4985C193.508 12.7678 193.406 13.1846 193.406 13.7492C193.406 14.3138 193.508 14.7698 193.713 15.1172C193.926 15.4559 194.234 15.6253 194.635 15.6253C194.84 15.6253 195.04 15.5601 195.236 15.4298C195.433 15.2996 195.582 15.1693 195.684 15.039L195.825 14.8306L196.465 15.508C196.44 15.5515 196.405 15.6122 196.363 15.6904C196.329 15.7686 196.235 15.9075 196.081 16.1073C195.936 16.3071 195.778 16.4851 195.608 16.6414C195.445 16.7891 195.232 16.9281 194.968 17.0583C194.703 17.18 194.426 17.2407 194.136 17.2407C193.496 17.2407 192.975 16.9758 192.574 16.446C192.173 15.9163 191.972 15.2258 191.972 14.3746C191.972 13.3149 192.275 12.3857 192.881 11.5866C193.487 10.7875 194.195 10.388 195.006 10.388C195.253 10.388 195.501 10.4271 195.748 10.5053C195.996 10.5748 196.248 10.6877 196.504 10.844L195.608 12.4464C195.3 12.2033 194.959 12.0816 194.584 12.0816Z" fill="#504B8E"/>
<path d="M76.8477 95.1657L77.0013 91.9999L76.8477 86.1764H81.6477L81.5069 87.5704H78.6269L78.5501 89.8763H81.1101L80.9693 91.2573H78.4989L78.4861 91.7784L78.5757 93.7847H81.6733L81.5325 95.1657H76.8477ZM86.5781 91.8696C86.5781 91.2703 86.5269 90.8708 86.4245 90.671C86.3221 90.4712 86.0832 90.3714 85.7077 90.3714C85.3322 90.3714 84.9056 90.5234 84.4277 90.8274V91.7784L84.5685 94.84L82.8533 95.1657L83.0069 91.9999C82.9728 90.836 82.8789 89.7938 82.7253 88.8732L84.2741 88.5345C84.3338 89.0382 84.3765 89.529 84.4021 90.0066C84.5301 89.8329 84.6752 89.6635 84.8373 89.4985C84.9994 89.3248 85.2554 89.1337 85.6053 88.9253C85.9552 88.7082 86.3093 88.5996 86.6677 88.5996C87.0261 88.5996 87.329 88.7168 87.5765 88.9513C87.824 89.1858 87.9818 89.5072 88.0501 89.9154C88.7584 89.0382 89.4752 88.5996 90.2005 88.5996C90.6528 88.5996 91.0112 88.7559 91.2757 89.0686C91.5402 89.3726 91.6725 89.7895 91.6725 90.3193L91.5957 91.7784L91.7365 94.9051L90.0085 95.2308L90.1621 91.8696C90.1621 91.2703 90.1109 90.8708 90.0085 90.671C89.9061 90.4712 89.6714 90.3714 89.3045 90.3714C88.9376 90.3714 88.5237 90.5147 88.0629 90.8013L88.0117 91.7784L88.1525 94.9051L86.4245 95.2308L86.5781 91.8696ZM94.8563 88.5345L94.7027 91.7784L94.8435 94.84L93.1283 95.1657L93.2819 91.9999L93.1411 88.8601L94.8563 88.5345ZM93.0515 86.6324C93.0515 86.3371 93.1624 86.0765 93.3843 85.8507C93.6062 85.6162 93.8622 85.4989 94.1523 85.4989C94.4424 85.4989 94.6643 85.5815 94.8179 85.7465C94.9715 85.9028 95.0483 86.1417 95.0483 86.463C95.0483 86.7843 94.9374 87.0623 94.7155 87.2968C94.5022 87.5226 94.2504 87.6355 93.9603 87.6355C93.6787 87.6355 93.4568 87.5399 93.2947 87.3489C93.1326 87.1579 93.0515 86.919 93.0515 86.6324ZM98.0197 85.082L97.8533 91.7784L97.9941 94.84L96.2661 95.1657L96.4197 91.9999L96.2661 85.4077L98.0197 85.082ZM99.6828 97.6801L101.002 94.6706L100.054 92.039L98.7612 88.8732L100.464 88.5475L101.283 91.3224L101.706 92.6383H101.872L102.179 91.6872L103.101 88.5345L104.675 88.7299L102.41 94.7879L101.334 98.0319L99.6828 97.6801ZM110.437 95.309C109.49 95.309 108.692 94.9051 108.043 94.0974C107.395 93.2897 107.071 92.2995 107.071 91.127C107.071 89.6939 107.459 88.4867 108.235 87.5052C109.02 86.5238 109.98 86.0331 111.115 86.0331C111.559 86.0331 111.969 86.0808 112.344 86.1764C112.728 86.2632 113.001 86.3544 113.163 86.45L113.394 86.5933L112.523 88.4042C112.327 88.2304 112.05 88.0698 111.691 87.9221C111.333 87.7658 111.009 87.6876 110.719 87.6876C110.13 87.6876 109.656 87.9352 109.298 88.4302C108.948 88.9253 108.773 89.6332 108.773 90.5538C108.773 91.4657 108.956 92.217 109.323 92.8076C109.69 93.3895 110.189 93.6805 110.821 93.6805C111.231 93.6805 111.602 93.5502 111.935 93.2897C112.267 93.0291 112.502 92.6817 112.639 92.2474L113.701 92.8728C113.419 93.637 112.988 94.2363 112.408 94.6706C111.828 95.0962 111.171 95.309 110.437 95.309ZM118.217 91.8696C118.217 91.2703 118.165 90.8708 118.063 90.671C117.961 90.4712 117.722 90.3714 117.346 90.3714C116.971 90.3714 116.544 90.5234 116.066 90.8274V91.7784L116.207 94.84L114.479 95.1657L114.633 91.9999L114.479 85.4077L116.233 85.082L116.066 88.4563V89.9806C116.194 89.8068 116.339 89.6375 116.501 89.4725C116.663 89.3075 116.915 89.1207 117.257 88.9123C117.598 88.7038 117.961 88.5996 118.345 88.5996C118.737 88.5996 119.066 88.7559 119.33 89.0686C119.595 89.3726 119.727 89.7895 119.727 90.3193L119.65 91.7784L119.791 94.9051L118.063 95.2308L118.217 91.8696ZM123.508 93.8368C123.755 93.8368 124.016 93.7717 124.289 93.6414C124.562 93.5111 124.775 93.3809 124.929 93.2506L125.159 93.0552L125.748 93.7847C125.663 93.9324 125.53 94.1018 125.351 94.2928C125.172 94.4839 124.988 94.649 124.801 94.7879C124.622 94.9182 124.378 95.0398 124.071 95.1527C123.772 95.2569 123.461 95.309 123.137 95.309C122.446 95.309 121.882 95.0441 121.447 94.5143C121.012 93.9758 120.794 93.2853 120.794 92.4428C120.794 91.3832 121.097 90.4539 121.703 89.6549C122.309 88.8558 123.017 88.4563 123.828 88.4563C124.451 88.4563 124.933 88.6343 125.274 88.9904C125.624 89.3466 125.799 89.8459 125.799 90.4886C125.799 90.8708 125.735 91.305 125.607 91.7915L125.351 92.065L122.151 92.3647C122.296 93.3462 122.748 93.8368 123.508 93.8368ZM123.508 89.7982C123.132 89.7982 122.817 89.9545 122.561 90.2672C122.305 90.5712 122.155 90.962 122.113 91.4397L124.289 91.1661C124.314 90.9663 124.327 90.8013 124.327 90.671C124.327 90.0892 124.054 89.7982 123.508 89.7982ZM130.628 91.8696C130.628 91.2703 130.577 90.8708 130.475 90.671C130.372 90.4712 130.133 90.3714 129.758 90.3714C129.383 90.3714 128.956 90.5234 128.478 90.8274V91.7784L128.619 94.84L126.904 95.1657L127.057 91.9999C127.023 90.836 126.929 89.7938 126.776 88.8732L128.324 88.5345C128.384 89.0382 128.427 89.529 128.452 90.0066C128.58 89.8329 128.725 89.6635 128.888 89.4985C129.05 89.3248 129.306 89.1337 129.656 88.9253C130.005 88.7082 130.372 88.5996 130.756 88.5996C131.149 88.5996 131.477 88.7559 131.742 89.0686C132.007 89.3726 132.139 89.7895 132.139 90.3193L132.062 91.7784L132.203 94.9051L130.475 95.2308L130.628 91.8696Z" fill="#504B8E"/>
<path d="M42.5937 105.239H41.5V106.226H42.5117V106.526H41.5V107.788H41.1719V104.937H42.5937V105.239ZM43.918 107.836C43.6224 107.836 43.386 107.741 43.209 107.552C43.0332 107.361 42.9453 107.108 42.9453 106.794C42.9453 106.453 43.0371 106.185 43.2207 105.993C43.4043 105.801 43.6523 105.705 43.9648 105.705C44.263 105.705 44.4954 105.798 44.6621 105.985C44.8301 106.172 44.914 106.431 44.914 106.762C44.914 107.087 44.8235 107.347 44.6426 107.544C44.4629 107.738 44.2213 107.836 43.918 107.836ZM43.9414 105.979C43.7357 105.979 43.5729 106.051 43.4531 106.194C43.3333 106.336 43.2734 106.532 43.2734 106.782C43.2734 107.024 43.334 107.214 43.4551 107.352C43.5762 107.492 43.7383 107.561 43.9414 107.561C44.1484 107.561 44.3073 107.493 44.418 107.356C44.5299 107.22 44.5859 107.026 44.5859 106.774C44.5859 106.52 44.5299 106.323 44.418 106.186C44.3073 106.048 44.1484 105.979 43.9414 105.979ZM46.4687 106.082C46.4127 106.038 46.332 106.017 46.2265 106.017C46.0898 106.017 45.9752 106.082 45.8828 106.213C45.7916 106.345 45.7461 106.524 45.7461 106.75V107.788H45.4258V105.752H45.7461V106.172H45.7539C45.7995 106.028 45.8691 105.917 45.9629 105.838C46.0566 105.757 46.1614 105.717 46.2773 105.717C46.3607 105.717 46.4245 105.726 46.4687 105.744V106.082ZM48.8418 107.768C48.7663 107.81 48.6666 107.832 48.543 107.832C48.1927 107.832 48.0176 107.633 48.0176 107.235V106.03H47.6738V105.752H48.0176V105.256L48.3379 105.15V105.752H48.8418V106.03H48.3379V107.177C48.3379 107.315 48.3607 107.411 48.4062 107.47C48.4518 107.528 48.5273 107.557 48.6328 107.557C48.7135 107.557 48.7832 107.535 48.8418 107.49V107.768ZM50.9297 107.788H50.6094V106.615C50.6094 106.191 50.4544 105.979 50.1445 105.979C49.9883 105.979 49.8568 106.04 49.75 106.164C49.6432 106.286 49.5898 106.442 49.5898 106.635V107.788H49.2695V104.774H49.5898V106.09H49.5976C49.7513 105.833 49.97 105.705 50.2539 105.705C50.7044 105.705 50.9297 105.981 50.9297 106.534V107.788ZM53.1426 106.852H51.7304C51.7357 107.079 51.7956 107.254 51.9101 107.377C52.0247 107.5 52.1823 107.561 52.3828 107.561C52.6081 107.561 52.8151 107.486 53.0039 107.335V107.64C52.8281 107.771 52.5957 107.836 52.3066 107.836C52.0241 107.836 51.8021 107.743 51.6406 107.559C51.4791 107.374 51.3984 107.113 51.3984 106.778C51.3984 106.462 51.4863 106.203 51.6621 106.005C51.8392 105.804 52.0586 105.705 52.3203 105.705C52.582 105.705 52.7845 105.791 52.9277 105.963C53.0709 106.135 53.1426 106.374 53.1426 106.681V106.852ZM52.8144 106.576C52.8131 106.387 52.7682 106.241 52.6797 106.136C52.5924 106.031 52.4707 105.979 52.3144 105.979C52.1634 105.979 52.0351 106.034 51.9297 106.144C51.8242 106.254 51.7591 106.398 51.7344 106.576H52.8144ZM55.5625 107.836C55.2669 107.836 55.0306 107.741 54.8535 107.552C54.6777 107.361 54.5898 107.108 54.5898 106.794C54.5898 106.453 54.6816 106.185 54.8652 105.993C55.0488 105.801 55.2969 105.705 55.6094 105.705C55.9075 105.705 56.14 105.798 56.3066 105.985C56.4746 106.172 56.5586 106.431 56.5586 106.762C56.5586 107.087 56.4681 107.347 56.2871 107.544C56.1074 107.738 55.8659 107.836 55.5625 107.836ZM55.5859 105.979C55.3802 105.979 55.2174 106.051 55.0976 106.194C54.9778 106.336 54.918 106.532 54.918 106.782C54.918 107.024 54.9785 107.214 55.0996 107.352C55.2207 107.492 55.3828 107.561 55.5859 107.561C55.793 107.561 55.9518 107.493 56.0625 107.356C56.1745 107.22 56.2304 107.026 56.2304 106.774C56.2304 106.52 56.1745 106.323 56.0625 106.186C55.9518 106.048 55.793 105.979 55.5859 105.979ZM58.6875 107.788H58.3672V107.466H58.3594C58.2265 107.713 58.0208 107.836 57.7422 107.836C57.2656 107.836 57.0273 107.547 57.0273 106.969V105.752H57.3457V106.918C57.3457 107.346 57.5071 107.561 57.8301 107.561C57.9863 107.561 58.1146 107.503 58.2148 107.386C58.3164 107.269 58.3672 107.115 58.3672 106.925V105.752H58.6875V107.788ZM60.2637 107.768C60.1881 107.81 60.0885 107.832 59.9648 107.832C59.6146 107.832 59.4394 107.633 59.4394 107.235V106.03H59.0957V105.752H59.4394V105.256L59.7597 105.15V105.752H60.2637V106.03H59.7597V107.177C59.7597 107.315 59.7825 107.411 59.8281 107.47C59.8737 107.528 59.9492 107.557 60.0547 107.557C60.1354 107.557 60.2051 107.535 60.2637 107.49V107.768ZM60.5703 107.715V107.365C60.7448 107.496 60.9368 107.561 61.1465 107.561C61.4277 107.561 61.5683 107.466 61.5683 107.275C61.5683 107.221 61.556 107.175 61.5312 107.138C61.5078 107.1 61.4752 107.065 61.4336 107.037C61.3932 107.007 61.345 106.982 61.289 106.959C61.2344 106.935 61.1751 106.911 61.1113 106.885C61.0228 106.85 60.9446 106.814 60.8769 106.778C60.8105 106.741 60.7545 106.7 60.709 106.655C60.6647 106.608 60.6308 106.556 60.6074 106.497C60.5853 106.439 60.5742 106.371 60.5742 106.293C60.5742 106.198 60.5957 106.114 60.6387 106.04C60.6816 105.966 60.7389 105.905 60.8105 105.856C60.8821 105.805 60.9635 105.768 61.0547 105.742C61.1471 105.717 61.2422 105.705 61.3398 105.705C61.513 105.705 61.668 105.735 61.8047 105.796V106.126C61.6575 106.028 61.4883 105.979 61.2969 105.979C61.237 105.979 61.1829 105.986 61.1347 106.001C61.0866 106.014 61.0449 106.033 61.0097 106.059C60.9759 106.084 60.9492 106.114 60.9297 106.15C60.9114 106.184 60.9023 106.223 60.9023 106.265C60.9023 106.318 60.9114 106.363 60.9297 106.399C60.9492 106.434 60.9772 106.466 61.0137 106.494C61.0501 106.522 61.0944 106.547 61.1465 106.57C61.1985 106.592 61.2578 106.616 61.3242 106.643C61.4127 106.678 61.4922 106.713 61.5625 106.75C61.6328 106.786 61.6927 106.827 61.7422 106.874C61.7916 106.919 61.8294 106.971 61.8554 107.031C61.8828 107.09 61.8965 107.161 61.8965 107.243C61.8965 107.344 61.8743 107.432 61.8301 107.506C61.7871 107.58 61.7291 107.641 61.6562 107.69C61.5833 107.739 61.4993 107.776 61.4043 107.8C61.3092 107.824 61.2096 107.836 61.1054 107.836C60.8997 107.836 60.7213 107.795 60.5703 107.715ZM63.3183 107.768C63.2428 107.81 63.1432 107.832 63.0195 107.832C62.6693 107.832 62.4941 107.633 62.4941 107.235V106.03H62.1504V105.752H62.4941V105.256L62.8144 105.15V105.752H63.3183V106.03H62.8144V107.177C62.8144 107.315 62.8372 107.411 62.8828 107.47C62.9284 107.528 63.0039 107.557 63.1094 107.557C63.1901 107.557 63.2597 107.535 63.3183 107.49V107.768ZM65.1777 107.788H64.8574V107.47H64.8496C64.7103 107.714 64.5052 107.836 64.2344 107.836C64.0351 107.836 63.8789 107.782 63.7656 107.675C63.6536 107.567 63.5976 107.425 63.5976 107.248C63.5976 106.867 63.8177 106.646 64.2578 106.583L64.8574 106.497C64.8574 106.152 64.72 105.979 64.4453 105.979C64.2044 105.979 63.987 106.063 63.793 106.23V105.896C63.9896 105.769 64.2161 105.705 64.4726 105.705C64.9427 105.705 65.1777 105.958 65.1777 106.464V107.788ZM64.8574 106.758L64.375 106.826C64.2265 106.848 64.1146 106.885 64.039 106.939C63.9635 106.992 63.9258 107.087 63.9258 107.223C63.9258 107.323 63.9603 107.404 64.0293 107.468C64.0996 107.53 64.1927 107.561 64.3086 107.561C64.4674 107.561 64.5983 107.505 64.7012 107.392C64.8053 107.278 64.8574 107.135 64.8574 106.962V106.758ZM67.4414 107.788H67.1211V106.627C67.1211 106.195 66.9661 105.979 66.6562 105.979C66.4961 105.979 66.3633 106.04 66.2578 106.164C66.1536 106.286 66.1015 106.44 66.1015 106.627V107.788H65.7812V105.752H66.1015V106.09H66.1094C66.2604 105.833 66.4791 105.705 66.7656 105.705C66.9844 105.705 67.1517 105.777 67.2676 105.921C67.3834 106.065 67.4414 106.271 67.4414 106.543V107.788ZM69.7539 107.788H69.4336V107.442H69.4258C69.2773 107.705 69.0482 107.836 68.7383 107.836C68.487 107.836 68.2858 107.745 68.1347 107.563C67.985 107.381 67.9101 107.131 67.9101 106.818C67.9101 106.481 67.9935 106.211 68.1601 106.009C68.3268 105.806 68.5488 105.705 68.8262 105.705C69.1009 105.705 69.3008 105.814 69.4258 106.034H69.4336V104.774H69.7539V107.788ZM69.4336 106.868V106.568C69.4336 106.403 69.3802 106.264 69.2734 106.15C69.1666 106.036 69.0312 105.979 68.8672 105.979C68.6719 105.979 68.5182 106.052 68.4062 106.198C68.2943 106.344 68.2383 106.545 68.2383 106.802C68.2383 107.037 68.2916 107.222 68.3984 107.358C68.5065 107.494 68.651 107.561 68.832 107.561C69.0104 107.561 69.1549 107.496 69.2656 107.365C69.3776 107.233 69.4336 107.067 69.4336 106.868ZM70.5664 105.235C70.5091 105.235 70.4603 105.216 70.4199 105.176C70.3795 105.137 70.3594 105.086 70.3594 105.025C70.3594 104.964 70.3795 104.914 70.4199 104.874C70.4603 104.832 70.5091 104.812 70.5664 104.812C70.625 104.812 70.6745 104.832 70.7148 104.874C70.7565 104.914 70.7773 104.964 70.7773 105.025C70.7773 105.083 70.7565 105.133 70.7148 105.174C70.6745 105.215 70.625 105.235 70.5664 105.235ZM70.7226 107.788H70.4023V105.752H70.7226V107.788ZM73.0312 107.788H72.7109V106.627C72.7109 106.195 72.556 105.979 72.2461 105.979C72.0859 105.979 71.9531 106.04 71.8476 106.164C71.7435 106.286 71.6914 106.44 71.6914 106.627V107.788H71.3711V105.752H71.6914V106.09H71.6992C71.8502 105.833 72.069 105.705 72.3554 105.705C72.5742 105.705 72.7415 105.777 72.8574 105.921C72.9733 106.065 73.0312 106.271 73.0312 106.543V107.788ZM75.3437 107.625C75.3437 108.372 74.9922 108.746 74.289 108.746C74.0416 108.746 73.8255 108.699 73.6406 108.603V108.277C73.8659 108.404 74.0807 108.468 74.2851 108.468C74.7773 108.468 75.0234 108.201 75.0234 107.669V107.446H75.0156C74.8633 107.706 74.6341 107.836 74.3281 107.836C74.0794 107.836 73.8789 107.745 73.7265 107.565C73.5755 107.384 73.5 107.141 73.5 106.835C73.5 106.49 73.5814 106.214 73.7441 106.011C73.9082 105.806 74.1321 105.705 74.416 105.705C74.6855 105.705 74.8854 105.814 75.0156 106.034H75.0234V105.752H75.3437V107.625ZM75.0234 106.868V106.568C75.0234 106.406 74.9694 106.267 74.8613 106.152C74.7545 106.036 74.6211 105.979 74.4609 105.979C74.263 105.979 74.1081 106.053 73.9961 106.199C73.8841 106.346 73.8281 106.55 73.8281 106.814C73.8281 107.041 73.8815 107.222 73.9883 107.358C74.0963 107.494 74.2389 107.561 74.416 107.561C74.5957 107.561 74.7415 107.497 74.8535 107.367C74.9668 107.236 75.0234 107.07 75.0234 106.868ZM78.4531 107.694C78.2995 107.789 78.1172 107.836 77.9062 107.836C77.6211 107.836 77.3906 107.741 77.2148 107.554C77.0403 107.364 76.9531 107.118 76.9531 106.818C76.9531 106.482 77.0475 106.213 77.2363 106.011C77.4251 105.806 77.6771 105.705 77.9922 105.705C78.168 105.705 78.3229 105.738 78.457 105.804V106.138C78.3086 106.032 78.1497 105.979 77.9804 105.979C77.776 105.979 77.6081 106.054 77.4765 106.203C77.3463 106.352 77.2812 106.547 77.2812 106.791C77.2812 107.029 77.3424 107.217 77.4648 107.354C77.5885 107.493 77.7539 107.561 77.9609 107.561C78.1354 107.561 78.2995 107.502 78.4531 107.385V107.694ZM79.7734 107.836C79.4778 107.836 79.2415 107.741 79.0644 107.552C78.8887 107.361 78.8008 107.108 78.8008 106.794C78.8008 106.453 78.8926 106.185 79.0762 105.993C79.2597 105.801 79.5078 105.705 79.8203 105.705C80.1185 105.705 80.3509 105.798 80.5176 105.985C80.6855 106.172 80.7695 106.431 80.7695 106.762C80.7695 107.087 80.679 107.347 80.498 107.544C80.3183 107.738 80.0768 107.836 79.7734 107.836ZM79.7969 105.979C79.5911 105.979 79.4284 106.051 79.3086 106.194C79.1888 106.336 79.1289 106.532 79.1289 106.782C79.1289 107.024 79.1894 107.214 79.3105 107.352C79.4316 107.492 79.5937 107.561 79.7969 107.561C80.0039 107.561 80.1627 107.493 80.2734 107.356C80.3854 107.22 80.4414 107.026 80.4414 106.774C80.4414 106.52 80.3854 106.323 80.2734 106.186C80.1627 106.048 80.0039 105.979 79.7969 105.979ZM82.9414 107.788H82.6211V106.627C82.6211 106.195 82.4661 105.979 82.1562 105.979C81.9961 105.979 81.8633 106.04 81.7578 106.164C81.6536 106.286 81.6015 106.44 81.6015 106.627V107.788H81.2812V105.752H81.6015V106.09H81.6094C81.7604 105.833 81.9791 105.705 82.2656 105.705C82.4844 105.705 82.6517 105.777 82.7676 105.921C82.8834 106.065 82.9414 106.271 82.9414 106.543V107.788ZM84.4746 107.768C84.3991 107.81 84.2995 107.832 84.1758 107.832C83.8255 107.832 83.6504 107.633 83.6504 107.235V106.03H83.3066V105.752H83.6504V105.256L83.9707 105.15V105.752H84.4746V106.03H83.9707V107.177C83.9707 107.315 83.9935 107.411 84.039 107.47C84.0846 107.528 84.1601 107.557 84.2656 107.557C84.3463 107.557 84.416 107.535 84.4746 107.49V107.768ZM85.9453 106.082C85.8893 106.038 85.8086 106.017 85.7031 106.017C85.5664 106.017 85.4518 106.082 85.3594 106.213C85.2682 106.345 85.2226 106.524 85.2226 106.75V107.788H84.9023V105.752H85.2226V106.172H85.2304C85.276 106.028 85.3457 105.917 85.4394 105.838C85.5332 105.757 85.638 105.717 85.7539 105.717C85.8372 105.717 85.901 105.726 85.9453 105.744V106.082ZM86.457 105.235C86.3997 105.235 86.3509 105.216 86.3105 105.176C86.2702 105.137 86.25 105.086 86.25 105.025C86.25 104.964 86.2702 104.914 86.3105 104.874C86.3509 104.832 86.3997 104.812 86.457 104.812C86.5156 104.812 86.5651 104.832 86.6054 104.874C86.6471 104.914 86.668 104.964 86.668 105.025C86.668 105.083 86.6471 105.133 86.6054 105.174C86.5651 105.215 86.5156 105.235 86.457 105.235ZM86.6133 107.788H86.293V105.752H86.6133V107.788ZM87.5898 107.494H87.582V107.788H87.2617V104.774H87.582V106.111H87.5898C87.7474 105.84 87.9778 105.705 88.2812 105.705C88.5377 105.705 88.7383 105.796 88.8828 105.979C89.0286 106.16 89.1015 106.405 89.1015 106.71C89.1015 107.051 89.0202 107.324 88.8574 107.529C88.6946 107.734 88.472 107.836 88.1894 107.836C87.9251 107.836 87.7252 107.722 87.5898 107.494ZM87.582 106.672V106.957C87.582 107.125 87.6354 107.269 87.7422 107.386C87.8502 107.503 87.987 107.561 88.1523 107.561C88.3463 107.561 88.498 107.486 88.6074 107.335C88.7181 107.183 88.7734 106.974 88.7734 106.705C88.7734 106.478 88.722 106.3 88.6191 106.172C88.5163 106.043 88.3769 105.979 88.2012 105.979C88.015 105.979 87.8652 106.045 87.7519 106.178C87.6387 106.309 87.582 106.474 87.582 106.672ZM91.2304 107.788H90.9101V107.466H90.9023C90.7695 107.713 90.5638 107.836 90.2851 107.836C89.8086 107.836 89.5703 107.547 89.5703 106.969V105.752H89.8887V106.918C89.8887 107.346 90.0501 107.561 90.373 107.561C90.5293 107.561 90.6575 107.503 90.7578 107.386C90.8594 107.269 90.9101 107.115 90.9101 106.925V105.752H91.2304V107.788ZM92.8066 107.768C92.7311 107.81 92.6315 107.832 92.5078 107.832C92.1575 107.832 91.9824 107.633 91.9824 107.235V106.03H91.6387V105.752H91.9824V105.256L92.3027 105.15V105.752H92.8066V106.03H92.3027V107.177C92.3027 107.315 92.3255 107.411 92.3711 107.47C92.4166 107.528 92.4922 107.557 92.5976 107.557C92.6784 107.557 92.748 107.535 92.8066 107.49V107.768ZM93.3984 105.235C93.3411 105.235 93.2923 105.216 93.2519 105.176C93.2116 105.137 93.1914 105.086 93.1914 105.025C93.1914 104.964 93.2116 104.914 93.2519 104.874C93.2923 104.832 93.3411 104.812 93.3984 104.812C93.457 104.812 93.5065 104.832 93.5469 104.874C93.5885 104.914 93.6094 104.964 93.6094 105.025C93.6094 105.083 93.5885 105.133 93.5469 105.174C93.5065 105.215 93.457 105.235 93.3984 105.235ZM93.5547 107.788H93.2344V105.752H93.5547V107.788ZM95.039 107.836C94.7435 107.836 94.5071 107.741 94.3301 107.552C94.1543 107.361 94.0664 107.108 94.0664 106.794C94.0664 106.453 94.1582 106.185 94.3418 105.993C94.5254 105.801 94.7734 105.705 95.0859 105.705C95.3841 105.705 95.6165 105.798 95.7832 105.985C95.9512 106.172 96.0351 106.431 96.0351 106.762C96.0351 107.087 95.9446 107.347 95.7637 107.544C95.584 107.738 95.3424 107.836 95.039 107.836ZM95.0625 105.979C94.8568 105.979 94.694 106.051 94.5742 106.194C94.4544 106.336 94.3945 106.532 94.3945 106.782C94.3945 107.024 94.4551 107.214 94.5762 107.352C94.6972 107.492 94.8594 107.561 95.0625 107.561C95.2695 107.561 95.4284 107.493 95.539 107.356C95.651 107.22 95.707 107.026 95.707 106.774C95.707 106.52 95.651 106.323 95.539 106.186C95.4284 106.048 95.2695 105.979 95.0625 105.979ZM98.207 107.788H97.8867V106.627C97.8867 106.195 97.7318 105.979 97.4219 105.979C97.2617 105.979 97.1289 106.04 97.0234 106.164C96.9193 106.286 96.8672 106.44 96.8672 106.627V107.788H96.5469V105.752H96.8672V106.09H96.875C97.026 105.833 97.2448 105.705 97.5312 105.705C97.75 105.705 97.9173 105.777 98.0332 105.921C98.1491 106.065 98.207 106.271 98.207 106.543V107.788ZM98.6914 107.715V107.365C98.8659 107.496 99.0579 107.561 99.2676 107.561C99.5488 107.561 99.6894 107.466 99.6894 107.275C99.6894 107.221 99.6771 107.175 99.6523 107.138C99.6289 107.1 99.5963 107.065 99.5547 107.037C99.5143 107.007 99.4661 106.982 99.4101 106.959C99.3554 106.935 99.2962 106.911 99.2324 106.885C99.1439 106.85 99.0657 106.814 98.998 106.778C98.9316 106.741 98.8756 106.7 98.8301 106.655C98.7858 106.608 98.7519 106.556 98.7285 106.497C98.7064 106.439 98.6953 106.371 98.6953 106.293C98.6953 106.198 98.7168 106.114 98.7597 106.04C98.8027 105.966 98.86 105.905 98.9316 105.856C99.0032 105.805 99.0846 105.768 99.1758 105.742C99.2682 105.717 99.3633 105.705 99.4609 105.705C99.6341 105.705 99.789 105.735 99.9258 105.796V106.126C99.7786 106.028 99.6094 105.979 99.418 105.979C99.3581 105.979 99.304 105.986 99.2558 106.001C99.2077 106.014 99.166 106.033 99.1308 106.059C99.097 106.084 99.0703 106.114 99.0508 106.15C99.0325 106.184 99.0234 106.223 99.0234 106.265C99.0234 106.318 99.0325 106.363 99.0508 106.399C99.0703 106.434 99.0983 106.466 99.1347 106.494C99.1712 106.522 99.2155 106.547 99.2676 106.57C99.3196 106.592 99.3789 106.616 99.4453 106.643C99.5338 106.678 99.6133 106.713 99.6836 106.75C99.7539 106.786 99.8138 106.827 99.8633 106.874C99.9127 106.919 99.9505 106.971 99.9765 107.031C100.004 107.09 100.017 107.161 100.017 107.243C100.017 107.344 99.9954 107.432 99.9512 107.506C99.9082 107.58 99.8502 107.641 99.7773 107.69C99.7044 107.739 99.6204 107.776 99.5254 107.8C99.4303 107.824 99.3307 107.836 99.2265 107.836C99.0208 107.836 98.8424 107.795 98.6914 107.715ZM103.041 107.788H102.72V107.47H102.713C102.573 107.714 102.368 107.836 102.097 107.836C101.898 107.836 101.742 107.782 101.629 107.675C101.517 107.567 101.461 107.425 101.461 107.248C101.461 106.867 101.681 106.646 102.121 106.583L102.72 106.497C102.72 106.152 102.583 105.979 102.308 105.979C102.067 105.979 101.85 106.063 101.656 106.23V105.896C101.853 105.769 102.079 105.705 102.336 105.705C102.806 105.705 103.041 105.958 103.041 106.464V107.788ZM102.72 106.758L102.238 106.826C102.09 106.848 101.978 106.885 101.902 106.939C101.827 106.992 101.789 107.087 101.789 107.223C101.789 107.323 101.823 107.404 101.892 107.468C101.963 107.53 102.056 107.561 102.172 107.561C102.331 107.561 102.461 107.505 102.564 107.392C102.668 107.278 102.72 107.135 102.72 106.962V106.758ZM105.304 107.788H104.984V106.627C104.984 106.195 104.829 105.979 104.519 105.979C104.359 105.979 104.226 106.04 104.121 106.164C104.017 106.286 103.965 106.44 103.965 106.627V107.788H103.644V105.752H103.965V106.09H103.972C104.123 105.833 104.342 105.705 104.629 105.705C104.847 105.705 105.015 105.777 105.131 105.921C105.247 106.065 105.304 106.271 105.304 106.543V107.788ZM107.617 107.788H107.297V107.442H107.289C107.14 107.705 106.911 107.836 106.601 107.836C106.35 107.836 106.149 107.745 105.998 107.563C105.848 107.381 105.773 107.131 105.773 106.818C105.773 106.481 105.857 106.211 106.023 106.009C106.19 105.806 106.412 105.705 106.689 105.705C106.964 105.705 107.164 105.814 107.289 106.034H107.297V104.774H107.617V107.788ZM107.297 106.868V106.568C107.297 106.403 107.243 106.264 107.137 106.15C107.03 106.036 106.894 105.979 106.73 105.979C106.535 105.979 106.381 106.052 106.269 106.198C106.157 106.344 106.101 106.545 106.101 106.802C106.101 107.037 106.155 107.222 106.261 107.358C106.37 107.494 106.514 107.561 106.695 107.561C106.873 107.561 107.018 107.496 107.129 107.365C107.241 107.233 107.297 107.067 107.297 106.868ZM111.07 107.788H110.75V107.442H110.742C110.594 107.705 110.364 107.836 110.054 107.836C109.803 107.836 109.602 107.745 109.451 107.563C109.301 107.381 109.226 107.131 109.226 106.818C109.226 106.481 109.31 106.211 109.476 106.009C109.643 105.806 109.865 105.705 110.142 105.705C110.417 105.705 110.617 105.814 110.742 106.034H110.75V104.774H111.07V107.788ZM110.75 106.868V106.568C110.75 106.403 110.696 106.264 110.59 106.15C110.483 106.036 110.347 105.979 110.183 105.979C109.988 105.979 109.834 106.052 109.722 106.198C109.61 106.344 109.554 106.545 109.554 106.802C109.554 107.037 109.608 107.222 109.715 107.358C109.823 107.494 109.967 107.561 110.148 107.561C110.327 107.561 110.471 107.496 110.582 107.365C110.694 107.233 110.75 107.067 110.75 106.868ZM113.326 106.852H111.914C111.919 107.079 111.979 107.254 112.094 107.377C112.208 107.5 112.366 107.561 112.566 107.561C112.791 107.561 112.998 107.486 113.187 107.335V107.64C113.011 107.771 112.779 107.836 112.49 107.836C112.207 107.836 111.985 107.743 111.824 107.559C111.663 107.374 111.582 107.113 111.582 106.778C111.582 106.462 111.67 106.203 111.845 106.005C112.023 105.804 112.242 105.705 112.504 105.705C112.765 105.705 112.968 105.791 113.111 105.963C113.254 106.135 113.326 106.374 113.326 106.681V106.852ZM112.998 106.576C112.997 106.387 112.952 106.241 112.863 106.136C112.776 106.031 112.654 105.979 112.498 105.979C112.347 105.979 112.219 106.034 112.113 106.144C112.008 106.254 111.942 106.398 111.918 106.576H112.998ZM115.519 107.788H115.199V107.442H115.191C115.043 107.705 114.814 107.836 114.504 107.836C114.252 107.836 114.051 107.745 113.9 107.563C113.75 107.381 113.676 107.131 113.676 106.818C113.676 106.481 113.759 106.211 113.926 106.009C114.092 105.806 114.314 105.705 114.592 105.705C114.866 105.705 115.066 105.814 115.191 106.034H115.199V104.774H115.519V107.788ZM115.199 106.868V106.568C115.199 106.403 115.146 106.264 115.039 106.15C114.932 106.036 114.797 105.979 114.633 105.979C114.437 105.979 114.284 106.052 114.172 106.198C114.06 106.344 114.004 106.545 114.004 106.802C114.004 107.037 114.057 107.222 114.164 107.358C114.272 107.494 114.416 107.561 114.597 107.561C114.776 107.561 114.92 107.496 115.031 107.365C115.143 107.233 115.199 107.067 115.199 106.868ZM116.332 105.235C116.275 105.235 116.226 105.216 116.185 105.176C116.145 105.137 116.125 105.086 116.125 105.025C116.125 104.964 116.145 104.914 116.185 104.874C116.226 104.832 116.275 104.812 116.332 104.812C116.39 104.812 116.44 104.832 116.48 104.874C116.522 104.914 116.543 104.964 116.543 105.025C116.543 105.083 116.522 105.133 116.48 105.174C116.44 105.215 116.39 105.235 116.332 105.235ZM116.488 107.788H116.168V105.752H116.488V107.788ZM118.5 107.694C118.346 107.789 118.164 107.836 117.953 107.836C117.668 107.836 117.437 107.741 117.261 107.554C117.087 107.364 117 107.118 117 106.818C117 106.482 117.094 106.213 117.283 106.011C117.472 105.806 117.724 105.705 118.039 105.705C118.215 105.705 118.37 105.738 118.504 105.804V106.138C118.355 106.032 118.196 105.979 118.027 105.979C117.823 105.979 117.655 106.054 117.523 106.203C117.393 106.352 117.328 106.547 117.328 106.791C117.328 107.029 117.389 107.217 117.511 107.354C117.635 107.493 117.801 107.561 118.008 107.561C118.182 107.561 118.346 107.502 118.5 107.385V107.694ZM120.416 107.788H120.095V107.47H120.088C119.948 107.714 119.743 107.836 119.472 107.836C119.273 107.836 119.117 107.782 119.004 107.675C118.892 107.567 118.836 107.425 118.836 107.248C118.836 106.867 119.056 106.646 119.496 106.583L120.095 106.497C120.095 106.152 119.958 105.979 119.683 105.979C119.442 105.979 119.225 106.063 119.031 106.23V105.896C119.228 105.769 119.454 105.705 119.711 105.705C120.181 105.705 120.416 105.958 120.416 106.464V107.788ZM120.095 106.758L119.613 106.826C119.465 106.848 119.353 106.885 119.277 106.939C119.202 106.992 119.164 107.087 119.164 107.223C119.164 107.323 119.198 107.404 119.267 107.468C119.338 107.53 119.431 107.561 119.547 107.561C119.706 107.561 119.836 107.505 119.939 107.392C120.043 107.278 120.095 107.135 120.095 106.962V106.758ZM121.947 107.768C121.872 107.81 121.772 107.832 121.648 107.832C121.298 107.832 121.123 107.633 121.123 107.235V106.03H120.779V105.752H121.123V105.256L121.443 105.15V105.752H121.947V106.03H121.443V107.177C121.443 107.315 121.466 107.411 121.511 107.47C121.557 107.528 121.633 107.557 121.738 107.557C121.819 107.557 121.888 107.535 121.947 107.49V107.768ZM122.539 105.235C122.482 105.235 122.433 105.216 122.392 105.176C122.352 105.137 122.332 105.086 122.332 105.025C122.332 104.964 122.352 104.914 122.392 104.874C122.433 104.832 122.482 104.812 122.539 104.812C122.597 104.812 122.647 104.832 122.687 104.874C122.729 104.914 122.75 104.964 122.75 105.025C122.75 105.083 122.729 105.133 122.687 105.174C122.647 105.215 122.597 105.235 122.539 105.235ZM122.695 107.788H122.375V105.752H122.695V107.788ZM124.179 107.836C123.884 107.836 123.648 107.741 123.47 107.552C123.295 107.361 123.207 107.108 123.207 106.794C123.207 106.453 123.299 106.185 123.482 105.993C123.666 105.801 123.914 105.705 124.226 105.705C124.525 105.705 124.757 105.798 124.924 105.985C125.092 106.172 125.176 106.431 125.176 106.762C125.176 107.087 125.085 107.347 124.904 107.544C124.724 107.738 124.483 107.836 124.179 107.836ZM124.203 105.979C123.997 105.979 123.834 106.051 123.715 106.194C123.595 106.336 123.535 106.532 123.535 106.782C123.535 107.024 123.595 107.214 123.717 107.352C123.838 107.492 124 107.561 124.203 107.561C124.41 107.561 124.569 107.493 124.679 107.356C124.791 107.22 124.847 107.026 124.847 106.774C124.847 106.52 124.791 106.323 124.679 106.186C124.569 106.048 124.41 105.979 124.203 105.979ZM127.347 107.788H127.027V106.627C127.027 106.195 126.872 105.979 126.562 105.979C126.402 105.979 126.269 106.04 126.164 106.164C126.06 106.286 126.008 106.44 126.008 106.627V107.788H125.687V105.752H126.008V106.09H126.015C126.166 105.833 126.385 105.705 126.672 105.705C126.89 105.705 127.058 105.777 127.174 105.921C127.289 106.065 127.347 106.271 127.347 106.543V107.788ZM130.039 105.06C129.976 105.025 129.905 105.007 129.826 105.007C129.602 105.007 129.49 105.151 129.49 105.438V105.752H129.959V106.03H129.49V107.788H129.172V106.03H128.83V105.752H129.172V105.423C129.172 105.209 129.232 105.041 129.353 104.918C129.474 104.793 129.625 104.73 129.806 104.73C129.904 104.73 129.982 104.743 130.039 104.766V105.06ZM131.14 107.836C130.845 107.836 130.609 107.741 130.431 107.552C130.256 107.361 130.168 107.108 130.168 106.794C130.168 106.453 130.26 106.185 130.443 105.993C130.627 105.801 130.875 105.705 131.187 105.705C131.485 105.705 131.718 105.798 131.885 105.985C132.053 106.172 132.137 106.431 132.137 106.762C132.137 107.087 132.046 107.347 131.865 107.544C131.685 107.738 131.444 107.836 131.14 107.836ZM131.164 105.979C130.958 105.979 130.795 106.051 130.676 106.194C130.556 106.336 130.496 106.532 130.496 106.782C130.496 107.024 130.556 107.214 130.678 107.352C130.799 107.492 130.961 107.561 131.164 107.561C131.371 107.561 131.53 107.493 131.64 107.356C131.752 107.22 131.808 107.026 131.808 106.774C131.808 106.52 131.752 106.323 131.64 106.186C131.53 106.048 131.371 105.979 131.164 105.979ZM133.691 106.082C133.635 106.038 133.554 106.017 133.449 106.017C133.312 106.017 133.198 106.082 133.105 106.213C133.014 106.345 132.969 106.524 132.969 106.75V107.788H132.648V105.752H132.969V106.172H132.976C133.022 106.028 133.092 105.917 133.185 105.838C133.279 105.757 133.384 105.717 133.5 105.717C133.583 105.717 133.647 105.726 133.691 105.744V106.082ZM136.064 107.768C135.989 107.81 135.889 107.832 135.765 107.832C135.415 107.832 135.24 107.633 135.24 107.235V106.03H134.896V105.752H135.24V105.256L135.56 105.15V105.752H136.064V106.03H135.56V107.177C135.56 107.315 135.583 107.411 135.629 107.47C135.674 107.528 135.75 107.557 135.855 107.557C135.936 107.557 136.006 107.535 136.064 107.49V107.768ZM138.152 107.788H137.832V106.615C137.832 106.191 137.677 105.979 137.367 105.979C137.211 105.979 137.079 106.04 136.972 106.164C136.866 106.286 136.812 106.442 136.812 106.635V107.788H136.492V104.774H136.812V106.09H136.82C136.974 105.833 137.192 105.705 137.476 105.705C137.927 105.705 138.152 105.981 138.152 106.534V107.788ZM140.365 106.852H138.953C138.958 107.079 139.018 107.254 139.133 107.377C139.247 107.5 139.405 107.561 139.605 107.561C139.831 107.561 140.038 107.486 140.226 107.335V107.64C140.051 107.771 139.818 107.836 139.529 107.836C139.247 107.836 139.025 107.743 138.863 107.559C138.702 107.374 138.621 107.113 138.621 106.778C138.621 106.462 138.709 106.203 138.885 106.005C139.062 105.804 139.281 105.705 139.543 105.705C139.804 105.705 140.007 105.791 140.15 105.963C140.293 106.135 140.365 106.374 140.365 106.681V106.852ZM140.037 106.576C140.036 106.387 139.991 106.241 139.902 106.136C139.815 106.031 139.693 105.979 139.537 105.979C139.386 105.979 139.258 106.034 139.152 106.144C139.047 106.254 138.982 106.398 138.957 106.576H140.037ZM144.789 107.788H144.469V106.62C144.469 106.394 144.434 106.231 144.365 106.13C144.297 106.029 144.183 105.979 144.021 105.979C143.885 105.979 143.768 106.042 143.672 106.17C143.577 106.297 143.529 106.45 143.529 106.627V107.788H143.209V106.579C143.209 106.179 143.057 105.979 142.754 105.979C142.613 105.979 142.497 106.039 142.406 106.159C142.315 106.28 142.269 106.435 142.269 106.627V107.788H141.949V105.752H142.269V106.074H142.277C142.419 105.828 142.626 105.705 142.898 105.705C143.035 105.705 143.154 105.744 143.256 105.822C143.357 105.899 143.427 106 143.465 106.126C143.613 105.845 143.834 105.705 144.129 105.705C144.569 105.705 144.789 105.981 144.789 106.534V107.788ZM146.23 107.836C145.935 107.836 145.698 107.741 145.521 107.552C145.345 107.361 145.258 107.108 145.258 106.794C145.258 106.453 145.349 106.185 145.533 105.993C145.717 105.801 145.965 105.705 146.277 105.705C146.575 105.705 146.808 105.798 146.974 105.985C147.142 106.172 147.226 106.431 147.226 106.762C147.226 107.087 147.136 107.347 146.955 107.544C146.775 107.738 146.534 107.836 146.23 107.836ZM146.254 105.979C146.048 105.979 145.885 106.051 145.765 106.194C145.646 106.336 145.586 106.532 145.586 106.782C145.586 107.024 145.646 107.214 145.767 107.352C145.888 107.492 146.051 107.561 146.254 107.561C146.461 107.561 146.62 107.493 146.73 107.356C146.842 107.22 146.898 107.026 146.898 106.774C146.898 106.52 146.842 106.323 146.73 106.186C146.62 106.048 146.461 105.979 146.254 105.979ZM149.398 107.788H149.078V106.627C149.078 106.195 148.923 105.979 148.613 105.979C148.453 105.979 148.32 106.04 148.215 106.164C148.11 106.286 148.058 106.44 148.058 106.627V107.788H147.738V105.752H148.058V106.09H148.066C148.217 105.833 148.436 105.705 148.722 105.705C148.941 105.705 149.109 105.777 149.224 105.921C149.34 106.065 149.398 106.271 149.398 106.543V107.788ZM150.931 107.768C150.856 107.81 150.756 107.832 150.633 107.832C150.282 107.832 150.107 107.633 150.107 107.235V106.03H149.763V105.752H150.107V105.256L150.428 105.15V105.752H150.931V106.03H150.428V107.177C150.428 107.315 150.45 107.411 150.496 107.47C150.541 107.528 150.617 107.557 150.722 107.557C150.803 107.557 150.873 107.535 150.931 107.49V107.768ZM153.019 107.788H152.699V106.615C152.699 106.191 152.544 105.979 152.234 105.979C152.078 105.979 151.946 106.04 151.84 106.164C151.733 106.286 151.679 106.442 151.679 106.635V107.788H151.359V104.774H151.679V106.09H151.687C151.841 105.833 152.06 105.705 152.344 105.705C152.794 105.705 153.019 105.981 153.019 106.534V107.788ZM155.558 107.836C155.263 107.836 155.026 107.741 154.849 107.552C154.674 107.361 154.586 107.108 154.586 106.794C154.586 106.453 154.678 106.185 154.861 105.993C155.045 105.801 155.293 105.705 155.605 105.705C155.903 105.705 156.136 105.798 156.303 105.985C156.47 106.172 156.554 106.431 156.554 106.762C156.554 107.087 156.464 107.347 156.283 107.544C156.103 107.738 155.862 107.836 155.558 107.836ZM155.582 105.979C155.376 105.979 155.213 106.051 155.094 106.194C154.974 106.336 154.914 106.532 154.914 106.782C154.914 107.024 154.974 107.214 155.095 107.352C155.217 107.492 155.379 107.561 155.582 107.561C155.789 107.561 155.948 107.493 156.058 107.356C156.17 107.22 156.226 107.026 156.226 106.774C156.226 106.52 156.17 106.323 156.058 106.186C155.948 106.048 155.789 105.979 155.582 105.979ZM158.054 105.06C157.992 105.025 157.921 105.007 157.842 105.007C157.618 105.007 157.506 105.151 157.506 105.438V105.752H157.974V106.03H157.506V107.788H157.187V106.03H156.845V105.752H157.187V105.423C157.187 105.209 157.248 105.041 157.369 104.918C157.49 104.793 157.641 104.73 157.822 104.73C157.92 104.73 157.997 104.743 158.054 104.766V105.06Z" fill="black"/>
<path d="M93.2148 119.084H92.1148L91.7961 118.069H90.2023L89.8867 119.084H88.793L90.4242 114.523H91.6211L93.2148 119.084ZM91.5648 117.281L91.0836 115.748C91.0482 115.633 91.0232 115.496 91.0086 115.338H90.9836C90.9732 115.471 90.9471 115.603 90.9054 115.734L90.418 117.281H91.5648ZM94.6773 118.705H94.6648V120.582H93.6773V115.827H94.6648V116.317H94.6773C94.9211 115.937 95.2638 115.748 95.7054 115.748C96.12 115.748 96.4398 115.893 96.6648 116.183C96.8919 116.471 97.0054 116.865 97.0054 117.363C97.0054 117.906 96.8732 118.342 96.6086 118.671C96.3461 119 95.9961 119.164 95.5586 119.164C95.1732 119.164 94.8794 119.011 94.6773 118.705ZM94.6492 117.37V117.631C94.6492 117.856 94.7075 118.039 94.8242 118.18C94.9409 118.323 95.094 118.394 95.2836 118.394C95.5086 118.394 95.6825 118.305 95.8054 118.129C95.9304 117.952 95.993 117.701 95.993 117.376C95.993 116.803 95.7742 116.517 95.3367 116.517C95.1346 116.517 94.969 116.596 94.8398 116.752C94.7127 116.907 94.6492 117.114 94.6492 117.37ZM99.7336 116.734C99.6148 116.668 99.4763 116.635 99.318 116.635C99.1034 116.635 98.9357 116.716 98.8148 116.876C98.694 117.036 98.6336 117.253 98.6336 117.529V119.084H97.6461V115.827H98.6336V116.432H98.6461C98.8023 115.99 99.0836 115.77 99.4898 115.77C99.594 115.77 99.6752 115.782 99.7336 115.808V116.734ZM100.721 115.312C100.554 115.312 100.418 115.262 100.311 115.162C100.205 115.061 100.152 114.937 100.152 114.79C100.152 114.639 100.205 114.516 100.311 114.422C100.418 114.326 100.554 114.278 100.721 114.278C100.89 114.278 101.026 114.326 101.13 114.422C101.237 114.516 101.29 114.639 101.29 114.79C101.29 114.943 101.237 115.068 101.13 115.166C101.026 115.263 100.89 115.312 100.721 115.312ZM101.208 119.084H100.221V115.827H101.208V119.084ZM103.027 119.084H102.04V114.262H103.027V119.084ZM106.552 118.251H108.452V119.084H105.471V118.74C105.471 118.507 105.509 118.298 105.587 118.114C105.664 117.928 105.76 117.761 105.877 117.614C105.994 117.466 106.121 117.336 106.258 117.224C106.398 117.109 106.53 117.006 106.655 116.915C106.787 116.819 106.901 116.728 106.999 116.641C107.099 116.555 107.182 116.468 107.249 116.384C107.318 116.296 107.369 116.21 107.402 116.123C107.435 116.034 107.452 115.939 107.452 115.839C107.452 115.645 107.398 115.497 107.29 115.398C107.181 115.298 107.016 115.248 106.793 115.248C106.407 115.248 106.039 115.404 105.687 115.716V114.832C106.076 114.575 106.516 114.447 107.005 114.447C107.232 114.447 107.435 114.477 107.615 114.539C107.796 114.599 107.949 114.684 108.074 114.797C108.199 114.909 108.294 115.045 108.358 115.207C108.425 115.366 108.458 115.544 108.458 115.742C108.458 115.951 108.426 116.138 108.361 116.301C108.299 116.464 108.215 116.613 108.108 116.746C108.004 116.88 107.883 117.003 107.746 117.116C107.608 117.226 107.466 117.332 107.318 117.436C107.218 117.509 107.121 117.581 107.027 117.653C106.935 117.722 106.854 117.793 106.783 117.863C106.713 117.931 106.656 117.997 106.615 118.063C106.573 118.128 106.552 118.191 106.552 118.251ZM110.708 119.164C109.642 119.164 109.108 118.401 109.108 116.876C109.108 116.086 109.252 115.483 109.54 115.07C109.829 114.655 110.248 114.447 110.796 114.447C111.838 114.447 112.358 115.222 112.358 116.772C112.358 117.543 112.216 118.136 111.93 118.547C111.647 118.958 111.24 119.164 110.708 119.164ZM110.752 115.213C110.325 115.213 110.111 115.759 110.111 116.851C110.111 117.88 110.321 118.394 110.74 118.394C111.148 118.394 111.352 117.864 111.352 116.803C111.352 115.744 111.152 115.213 110.752 115.213ZM113.915 118.251H115.815V119.084H112.833V118.74C112.833 118.507 112.872 118.298 112.949 118.114C113.026 117.928 113.123 117.761 113.24 117.614C113.356 117.466 113.483 117.336 113.621 117.224C113.76 117.109 113.893 117.006 114.018 116.915C114.149 116.819 114.264 116.728 114.361 116.641C114.461 116.555 114.545 116.468 114.611 116.384C114.68 116.296 114.731 116.21 114.765 116.123C114.798 116.034 114.815 115.939 114.815 115.839C114.815 115.645 114.76 115.497 114.652 115.398C114.544 115.298 114.378 115.248 114.155 115.248C113.77 115.248 113.401 115.404 113.049 115.716V114.832C113.439 114.575 113.878 114.447 114.368 114.447C114.595 114.447 114.798 114.477 114.977 114.539C115.158 114.599 115.311 114.684 115.437 114.797C115.561 114.909 115.656 115.045 115.721 115.207C115.788 115.366 115.821 115.544 115.821 115.742C115.821 115.951 115.789 116.138 115.724 116.301C115.661 116.464 115.577 116.613 115.471 116.746C115.367 116.88 115.246 117.003 115.108 117.116C114.971 117.226 114.828 117.332 114.68 117.436C114.58 117.509 114.483 117.581 114.39 117.653C114.298 117.722 114.217 117.793 114.146 117.863C114.075 117.931 114.019 117.997 113.977 118.063C113.935 118.128 113.915 118.191 113.915 118.251ZM119.23 114.523V117.399H119.768V118.149H119.23V119.084H118.33V118.149H116.377V117.363C116.55 117.167 116.729 116.951 116.915 116.718C117.1 116.483 117.279 116.24 117.452 115.992C117.625 115.745 117.785 115.495 117.933 115.245C118.083 114.993 118.21 114.752 118.315 114.523H119.23ZM117.261 117.399H118.33V115.805C118.257 115.943 118.178 116.083 118.093 116.225C118.007 116.365 117.918 116.504 117.824 116.641C117.73 116.777 117.635 116.91 117.54 117.039C117.444 117.167 117.351 117.286 117.261 117.399Z" fill="black"/>
</g>
</g>
<defs>
<filter id="filter0_d_1079_4040" x="6.63838" y="-0.78349" width="28.1336" height="40.1375" filterUnits="userSpaceOnUse" color-interpolation-filters="sRGB">
<feFlood flood-opacity="0" result="BackgroundImageFix"/>
<feColorMatrix in="SourceAlpha" type="matrix" values="0 0 0 0 0 0 0 0 0 0 0 0 0 0 0 0 0 0 127 0" result="hardAlpha"/>
<feOffset dx="5.48449" dy="5.48449"/>
<feGaussianBlur stdDeviation="3.13399"/>
<feComposite in2="hardAlpha" operator="out"/>
<feColorMatrix type="matrix" values="0 0 0 0 0 0 0 0 0 0 0 0 0 0 0 0 0 0 0.3 0"/>
<feBlend mode="normal" in2="BackgroundImageFix" result="effect1_dropShadow_1079_4040"/>
<feBlend mode="normal" in="SourceGraphic" in2="effect1_dropShadow_1079_4040" result="shape"/>
</filter>
<linearGradient id="paint0_linear_1079_4040" x1="15.223" y1="1.26982" x2="15.223" y2="4.54122e-07" gradientUnits="userSpaceOnUse">
<stop stop-color="#48648D" stop-opacity="0"/>
<stop offset="1" stop-color="#48648D" stop-opacity="0.48"/>
</linearGradient>
<linearGradient id="paint1_linear_1079_4040" x1="15.2796" y1="8.42578" x2="15.2796" y2="9.1184" gradientUnits="userSpaceOnUse">
<stop stop-color="#48608D" stop-opacity="0"/>
<stop offset="1" stop-color="#486C8D" stop-opacity="0.48"/>
</linearGradient>
<linearGradient id="paint2_linear_1079_4040" x1="15.2211" y1="11.66" x2="15.2211" y2="27.989" gradientUnits="userSpaceOnUse">
<stop stop-color="#FFD951"/>
<stop offset="1" stop-color="#A96500"/>
</linearGradient>
<linearGradient id="paint3_linear_1079_4040" x1="15.3036" y1="15.7655" x2="15.3036" y2="23.7945" gradientUnits="userSpaceOnUse">
<stop stop-color="#D79B00"/>
<stop offset="1" stop-color="#FFDD64"/>
</linearGradient>
<linearGradient id="paint4_linear_1079_4040" x1="15.3751" y1="17.5156" x2="15.3751" y2="21.7491" gradientUnits="userSpaceOnUse">
<stop offset="0.0001" stop-color="#FFDA95"/>
<stop offset="0.0002" stop-color="#FFE2A9"/>
<stop offset="1" stop-color="#E6D224"/>
</linearGradient>
<clipPath id="clip0_1079_4040">
<rect width="200" height="143.919" fill="white"/>
</clipPath>
</defs>
</svg>
